<svg width="26" height="26" viewBox="0 0 26 26" fill="none" xmlns="http://www.w3.org/2000/svg">
<path d="M16.0274 1.35015C14.9612 1.03616 13.8327 0.867676 12.6648 0.867676C6.10238 0.867676 0.782471 6.18759 0.782471 12.75C0.782471 19.3125 6.10238 24.6324 12.6648 24.6324C19.2273 24.6324 24.5472 19.3125 24.5472 12.75C24.5472 11.1902 24.2466 9.70057 23.7003 8.33589" stroke="#F7FB43" stroke-width="1.32026" stroke-linecap="round"/>
<path d="M7.21232 11.3795L5.53559 12.0133V9.95365L8.0969 8.72581H9.85285V17.8092H7.21232V11.3795ZM15.178 17.9148C13.6993 17.9148 12.6695 17.6904 12.0886 17.2415C11.8158 17.0302 11.6221 16.775 11.5077 16.4757C11.3933 16.1677 11.3361 15.8024 11.3361 15.3799C11.3361 14.6758 11.4769 14.1565 11.7586 13.822C12.005 13.5404 12.4143 13.3335 12.9864 13.2015V13.1487C12.4407 13.0167 12.0402 12.7878 11.785 12.4621C11.5385 12.1365 11.4153 11.6524 11.4153 11.0099C11.4153 10.2881 11.6089 9.75121 11.9962 9.39914C12.4363 9.00306 13.1404 8.76101 14.1086 8.673V11.4323C14.1086 11.6524 14.1174 11.8196 14.135 11.934C14.1614 12.0397 14.2142 12.1189 14.2935 12.1717C14.3639 12.2245 14.4651 12.2641 14.5971 12.2905C14.7291 12.3081 14.9228 12.3169 15.178 12.3169C15.4333 12.3169 15.6269 12.3081 15.759 12.2905C15.891 12.2641 15.9966 12.2245 16.0758 12.1717C16.1462 12.1189 16.1902 12.0397 16.2078 11.934C16.2342 11.8196 16.2474 11.6524 16.2474 11.4323C16.2474 11.2211 16.2342 11.0583 16.2078 10.9438C16.1902 10.8294 16.1462 10.7414 16.0758 10.6798C16.0054 10.6182 15.9042 10.5786 15.7722 10.561C15.6401 10.5434 15.4421 10.5346 15.178 10.5346H14.9008C14.8304 10.5346 14.7512 10.5434 14.6631 10.561V8.63339C14.7159 8.62459 14.7996 8.62019 14.914 8.62019H15.178C16.5863 8.62019 17.5765 8.82263 18.1486 9.22751C18.4303 9.42995 18.6327 9.67639 18.7559 9.96685C18.8792 10.2485 18.9408 10.5962 18.9408 11.0099C18.9408 11.6524 18.8132 12.1365 18.5579 12.4621C18.3115 12.7878 17.9154 13.0167 17.3697 13.1487V13.2015C17.9418 13.3335 18.3511 13.5404 18.5975 13.822C18.8792 14.1565 19.02 14.6758 19.02 15.3799C19.02 15.7408 18.976 16.0621 18.888 16.3437C18.8088 16.6166 18.6723 16.8542 18.4787 17.0567C18.0562 17.4967 17.3389 17.7652 16.3267 17.862V15.0763C16.3267 14.8562 16.3091 14.6846 16.2739 14.5614C16.2386 14.4293 16.1814 14.3325 16.1022 14.2709C16.023 14.2093 15.913 14.1697 15.7722 14.1521C15.6401 14.1345 15.4421 14.1257 15.178 14.1257C14.914 14.1257 14.7115 14.1345 14.5707 14.1521C14.4387 14.1697 14.3331 14.2093 14.2539 14.2709C14.1746 14.3325 14.1174 14.4293 14.0822 14.5614C14.047 14.6846 14.0294 14.8562 14.0294 15.0763C14.0294 15.2875 14.0426 15.4547 14.069 15.578C14.1042 15.6924 14.1658 15.7804 14.2539 15.842C14.3331 15.9036 14.4431 15.9476 14.5839 15.974C14.7247 15.9916 14.9228 16.0004 15.178 16.0004H15.5081C15.5785 16.0004 15.6665 15.9916 15.7722 15.974V17.9016C15.7105 17.9104 15.6137 17.9148 15.4817 17.9148H15.178Z" fill="#F7FB43"/>
<path fill-rule="evenodd" clip-rule="evenodd" d="M21.0089 1.57956C21.0089 1.21498 20.7134 0.919434 20.3488 0.919434C19.9842 0.919434 19.6887 1.21498 19.6887 1.57956V3.56012H17.7085C17.3439 3.56012 17.0483 3.85567 17.0483 4.22025C17.0483 4.58483 17.3439 4.88038 17.7085 4.88038H19.6887V6.86061C19.6887 7.22519 19.9842 7.52074 20.3488 7.52074C20.7134 7.52074 21.0089 7.22519 21.0089 6.86061V4.88038H22.9895C23.3541 4.88038 23.6496 4.58483 23.6496 4.22025C23.6496 3.85567 23.3541 3.56012 22.9895 3.56012H21.0089V1.57956Z" fill="#F7FB43"/>
</svg>
