<svg width="38" height="39" viewBox="0 0 38 39" fill="none" xmlns="http://www.w3.org/2000/svg">
<path d="M24.0938 2.20159C22.4787 1.72594 20.7692 1.4707 19 1.4707C9.05887 1.4707 1 9.52958 1 19.4707C1 29.4118 9.05887 37.4707 19 37.4707C28.9411 37.4707 37 29.4118 37 19.4707C37 17.1078 36.5447 14.8512 35.717 12.7839" stroke="url(#paint0_linear_54_2227)" stroke-width="2" stroke-linecap="round"/>
<path d="M11.4 26.4707V15.2307L8.62 16.4907V14.5307L12.08 12.7107H13.66V26.4707H11.4ZM22.4763 26.6307C21.3429 26.6307 20.4163 26.544 19.6963 26.3707C18.9763 26.1974 18.4229 25.9507 18.0363 25.6307C17.6496 25.2974 17.3829 24.8974 17.2363 24.4307C17.0896 23.9507 17.0163 23.404 17.0163 22.7907C17.0163 22.0174 17.1096 21.4174 17.2963 20.9907C17.4963 20.5507 17.7829 20.224 18.1562 20.0107C18.5296 19.784 18.9829 19.6107 19.5163 19.4907V19.4107C18.7029 19.2374 18.1029 18.904 17.7163 18.4107C17.3296 17.9174 17.1363 17.1707 17.1363 16.1707C17.1363 15.5707 17.2229 15.044 17.3963 14.5907C17.5696 14.1374 17.8496 13.764 18.2363 13.4707C18.6363 13.164 19.1829 12.9374 19.8763 12.7907C20.5696 12.6307 21.4363 12.5507 22.4763 12.5507C23.5163 12.5507 24.3829 12.6307 25.0763 12.7907C25.7696 12.9374 26.3096 13.164 26.6963 13.4707C27.0963 13.764 27.3829 14.1374 27.5563 14.5907C27.7296 15.044 27.8163 15.5707 27.8163 16.1707C27.8163 17.1707 27.6229 17.9174 27.2363 18.4107C26.8496 18.904 26.2496 19.2374 25.4363 19.4107V19.4907C25.9829 19.6107 26.4363 19.784 26.7963 20.0107C27.1696 20.224 27.4496 20.5507 27.6363 20.9907C27.8363 21.4174 27.9363 22.0174 27.9363 22.7907C27.9363 23.404 27.8563 23.9507 27.6963 24.4307C27.5496 24.8974 27.2829 25.2974 26.8963 25.6307C26.5096 25.9507 25.9629 26.1974 25.2563 26.3707C24.5496 26.544 23.6229 26.6307 22.4763 26.6307ZM22.4763 24.7107C23.2896 24.7107 23.9229 24.6707 24.3763 24.5907C24.8429 24.4974 25.1696 24.304 25.3563 24.0107C25.5429 23.704 25.6363 23.244 25.6363 22.6307C25.6363 22.1507 25.5896 21.7707 25.4963 21.4907C25.4029 21.1974 25.2363 20.9774 24.9963 20.8307C24.7696 20.684 24.4496 20.584 24.0363 20.5307C23.6363 20.4774 23.1163 20.4507 22.4763 20.4507C21.8229 20.4507 21.2963 20.4774 20.8963 20.5307C20.4963 20.584 20.1763 20.684 19.9363 20.8307C19.7096 20.9774 19.5496 21.1974 19.4563 21.4907C19.3763 21.7707 19.3363 22.1507 19.3363 22.6307C19.3363 23.244 19.4229 23.704 19.5963 24.0107C19.7829 24.304 20.1029 24.4974 20.5563 24.5907C21.0229 24.6707 21.6629 24.7107 22.4763 24.7107ZM22.4763 18.5707C23.3163 18.5707 23.9496 18.5174 24.3763 18.4107C24.8163 18.304 25.1163 18.104 25.2763 17.8107C25.4363 17.5174 25.5163 17.0907 25.5163 16.5307C25.5163 15.944 25.4363 15.504 25.2763 15.2107C25.1296 14.9174 24.8363 14.7174 24.3963 14.6107C23.9696 14.504 23.3296 14.4507 22.4763 14.4507C21.6229 14.4507 20.9763 14.504 20.5363 14.6107C20.1096 14.7174 19.8229 14.9174 19.6763 15.2107C19.5296 15.504 19.4563 15.944 19.4563 16.5307C19.4563 17.0907 19.5296 17.5174 19.6763 17.8107C19.8363 18.104 20.1363 18.304 20.5763 18.4107C21.0163 18.5174 21.6496 18.5707 22.4763 18.5707Z" fill="url(#paint1_linear_54_2227)"/>
<path fill-rule="evenodd" clip-rule="evenodd" d="M31.6406 2.54883C31.6406 1.99654 31.1929 1.54883 30.6406 1.54883C30.0883 1.54883 29.6406 1.99654 29.6406 2.54883L29.6406 5.54883H26.6406C26.0883 5.54883 25.6406 5.99654 25.6406 6.54883C25.6406 7.10111 26.0883 7.54883 26.6406 7.54883H29.6406L29.6406 10.5488C29.6406 11.1011 30.0883 11.5488 30.6406 11.5488C31.1929 11.5488 31.6406 11.1011 31.6406 10.5488V7.54883H34.6406C35.1929 7.54883 35.6406 7.10111 35.6406 6.54883C35.6406 5.99654 35.1929 5.54883 34.6406 5.54883H31.6406V2.54883Z" fill="url(#paint2_linear_54_2227)"/>
<defs>
<linearGradient id="paint0_linear_54_2227" x1="37" y1="35.7598" x2="1" y2="-2.64023" gradientUnits="userSpaceOnUse">
<stop stop-color="#7041F3"/>
<stop offset="1" stop-color="#F5C84C"/>
</linearGradient>
<linearGradient id="paint1_linear_54_2227" x1="30" y1="27.6152" x2="12.5788" y2="4.90311" gradientUnits="userSpaceOnUse">
<stop stop-color="#7041F3"/>
<stop offset="1" stop-color="#F5C84C"/>
</linearGradient>
<linearGradient id="paint2_linear_54_2227" x1="35.6406" y1="11.0736" x2="25.6406" y2="0.406901" gradientUnits="userSpaceOnUse">
<stop stop-color="#7041F3"/>
<stop offset="1" stop-color="#F5C84C"/>
</linearGradient>
</defs>
</svg>
