<svg width="36" height="36" viewBox="0 0 36 36" fill="none" xmlns="http://www.w3.org/2000/svg">
<path d="M9.98 7.428L19.388 7.428C21.8147 7.428 23.7373 8.03467 25.156 9.248C26.5747 10.4613 27.284 12.2253 27.284 14.54C27.284 16.8547 26.5747 18.6187 25.156 19.832C23.7373 21.0453 21.8147 21.652 19.388 21.652H16.616V27H9.98L9.98 7.428ZM18.044 16.696C19.7427 16.696 20.592 15.9773 20.592 14.54C20.592 13.1027 19.7427 12.384 18.044 12.384H16.616V16.696H18.044Z" fill="url(#paint0_linear_1728_23418)"/>
<path d="M9.98 7.428L19.388 7.428C21.8147 7.428 23.7373 8.03467 25.156 9.248C26.5747 10.4613 27.284 12.2253 27.284 14.54C27.284 16.8547 26.5747 18.6187 25.156 19.832C23.7373 21.0453 21.8147 21.652 19.388 21.652H16.616V27H9.98L9.98 7.428ZM18.044 16.696C19.7427 16.696 20.592 15.9773 20.592 14.54C20.592 13.1027 19.7427 12.384 18.044 12.384H16.616V16.696H18.044Z" fill="url(#paint1_linear_1728_23418)"/>
<path d="M9.98 7.428L19.388 7.428C21.8147 7.428 23.7373 8.03467 25.156 9.248C26.5747 10.4613 27.284 12.2253 27.284 14.54C27.284 16.8547 26.5747 18.6187 25.156 19.832C23.7373 21.0453 21.8147 21.652 19.388 21.652H16.616V27H9.98L9.98 7.428ZM18.044 16.696C19.7427 16.696 20.592 15.9773 20.592 14.54C20.592 13.1027 19.7427 12.384 18.044 12.384H16.616V16.696H18.044Z" fill="url(#paint2_linear_1728_23418)"/>
<defs>
<linearGradient id="paint0_linear_1728_23418" x1="8.65039" y1="2.21289" x2="8.65039" y2="20.2129" gradientUnits="userSpaceOnUse">
<stop stop-color="#F5D78D"/>
<stop offset="1" stop-color="#FFA25A"/>
</linearGradient>
<linearGradient id="paint1_linear_1728_23418" x1="8.44502" y1="19.8998" x2="10.648" y2="0.563032" gradientUnits="userSpaceOnUse">
<stop stop-color="#1A1F30"/>
<stop offset="1" stop-color="#183B5F"/>
</linearGradient>
<linearGradient id="paint2_linear_1728_23418" x1="8.44502" y1="19.8998" x2="10.648" y2="0.563032" gradientUnits="userSpaceOnUse">
<stop stop-color="#183B5F"/>
<stop offset="1" stop-color="#357FCF"/>
</linearGradient>
</defs>
</svg>


