<svg viewBox="0 0 25 25" fill="none" xmlns="http://www.w3.org/2000/svg">
<g id="Home">
<path id="Subtract" d="M4.94727 10.1797C4.94727 9.87107 5.08754 9.5792 5.32851 9.38642L11.9315 4.10407C12.3025 3.80727 12.8296 3.80727 13.2006 4.10407L19.8036 9.38642C20.0445 9.5792 20.1848 9.87107 20.1848 10.1797V20.8656C20.1848 21.4267 19.73 21.8815 19.169 21.8815H16.1056C15.5534 21.8815 15.1056 21.4338 15.1056 20.8815V16.2944C15.1056 15.7333 14.6508 15.2785 14.0898 15.2785H11.0423C10.4813 15.2785 10.0265 15.7333 10.0265 16.2944V20.8815C10.0265 21.4338 9.57874 21.8815 9.02645 21.8815H5.9631C5.40207 21.8815 4.94727 21.4267 4.94727 20.8656V10.1797Z" fill="url(#paint0_linear_11_405)"/>
</g>
<defs>
<linearGradient id="paint0_linear_11_405" x1="12.566" y1="3.88147" x2="12.566" y2="21.8815" gradientUnits="userSpaceOnUse">
<stop stop-color="#969CA6"/>
<stop offset="1" stop-color="#495161"/>
</linearGradient>
</defs>
</svg>
