<svg viewBox="0 0 24 25" fill="none" xmlns="http://www.w3.org/2000/svg">
<g id="Home">
<path id="Subtract" d="M4.5 9.82883C4.5 9.52024 4.64028 9.22837 4.88125 9.03559L11.4842 3.75324C11.8552 3.45644 12.3824 3.45644 12.7534 3.75324L19.3563 9.03559C19.5973 9.22837 19.7376 9.52024 19.7376 9.82883V20.5148C19.7376 21.0758 19.2828 21.5306 18.7217 21.5306H15.6584C15.1061 21.5306 14.6584 21.0829 14.6584 20.5306V15.9435C14.6584 15.3825 14.2036 14.9277 13.6425 14.9277H10.595C10.034 14.9277 9.57919 15.3825 9.57919 15.9435V20.5306C9.57919 21.0829 9.13147 21.5306 8.57919 21.5306H5.51584C4.95481 21.5306 4.5 21.0758 4.5 20.5148V9.82883Z" fill="url(#paint0_linear_5191_1867)"/>
</g>
<defs>
<linearGradient id="paint0_linear_5191_1867" x1="12.1188" y1="3.53064" x2="12.1188" y2="21.5306" gradientUnits="userSpaceOnUse">
<stop stop-color="#A6A296"/>
<stop offset="1" stop-color="#615749"/>
</linearGradient>
</defs>
</svg>
