<svg viewBox="0 0 25 25" fill="none" xmlns="http://www.w3.org/2000/svg">
<g id="Home">
<path id="Subtract" d="M4.94727 9.92966C4.94727 9.62107 5.08754 9.3292 5.32851 9.13642L11.9315 3.85407C12.3025 3.55727 12.8296 3.55727 13.2006 3.85407L19.8036 9.13642C20.0445 9.3292 20.1848 9.62107 20.1848 9.92966V20.6156C20.1848 21.1767 19.73 21.6315 19.169 21.6315H16.1056C15.5534 21.6315 15.1056 21.1838 15.1056 20.6315V16.0444C15.1056 15.4833 14.6508 15.0285 14.0898 15.0285H11.0423C10.4813 15.0285 10.0265 15.4833 10.0265 16.0444V20.6315C10.0265 21.1838 9.57874 21.6315 9.02645 21.6315H5.9631C5.40207 21.6315 4.94727 21.1767 4.94727 20.6156V9.92966Z" fill="currentColor"/>
</g>
</svg>
