<svg viewBox="0 0 25 25" fill="none" xmlns="http://www.w3.org/2000/svg">
<g id="Promo&#195;&#167;&#195;&#163;o=on">
<g id="Group 1">
<path id="Union" fill-rule="evenodd" clip-rule="evenodd" d="M12.8071 3.70953C10.3218 3.70953 8.30713 5.72425 8.30713 8.20953C8.30713 10.6948 10.3218 12.7095 12.8071 12.7095H13C15.5918 12.7095 17.6928 10.6085 17.6928 8.01668V5.3459C17.6928 4.44216 16.9602 3.70953 16.0565 3.70953H12.8071ZM8.62364 14.682C6.67441 14.682 5.09424 16.2621 5.09424 18.2114C5.09424 20.1606 6.6744 21.7408 8.62364 21.7408H17.3766C19.3258 21.7408 20.906 20.1606 20.906 18.2114C20.906 16.2621 19.3258 14.682 17.3766 14.682H8.62364Z" fill="url(#paint0_linear_11_442)"/>
</g>
</g>
<defs>
<linearGradient id="paint0_linear_11_442" x1="13" y1="3.70953" x2="13" y2="21.7408" gradientUnits="userSpaceOnUse">
<stop stop-color="#969CA6"/>
<stop offset="1" stop-color="#495161"/>
</linearGradient>
</defs>
</svg>
