<svg viewBox="0 0 25 24" fill="none" xmlns="http://www.w3.org/2000/svg">
<g id="Promo&#195;&#167;&#195;&#163;o=on">
<g id="Group 1">
<g id="Union">
<path fill-rule="evenodd" clip-rule="evenodd" d="M12.8071 3.45947C10.3218 3.45947 8.30713 5.47419 8.30713 7.95947C8.30713 10.4448 10.3218 12.4595 12.8071 12.4595H13C15.5918 12.4595 17.6928 10.3584 17.6928 7.76662V5.09584C17.6928 4.1921 16.9602 3.45947 16.0565 3.45947H12.8071ZM8.62364 14.4319C6.67441 14.4319 5.09424 16.0121 5.09424 17.9613C5.09424 19.9106 6.6744 21.4907 8.62364 21.4907H17.3766C19.3258 21.4907 20.906 19.9106 20.906 17.9613C20.906 16.0121 19.3258 14.4319 17.3766 14.4319H8.62364Z" fill="url(#paint0_linear_5191_581)"/>
<path fill-rule="evenodd" clip-rule="evenodd" d="M12.8071 3.45947C10.3218 3.45947 8.30713 5.47419 8.30713 7.95947C8.30713 10.4448 10.3218 12.4595 12.8071 12.4595H13C15.5918 12.4595 17.6928 10.3584 17.6928 7.76662V5.09584C17.6928 4.1921 16.9602 3.45947 16.0565 3.45947H12.8071ZM8.62364 14.4319C6.67441 14.4319 5.09424 16.0121 5.09424 17.9613C5.09424 19.9106 6.6744 21.4907 8.62364 21.4907H17.3766C19.3258 21.4907 20.906 19.9106 20.906 17.9613C20.906 16.0121 19.3258 14.4319 17.3766 14.4319H8.62364Z" fill="url(#paint1_linear_5191_581)"/>
</g>
</g>
</g>
<defs>
<linearGradient id="paint0_linear_5191_581" x1="13" y1="3.45947" x2="13" y2="21.4907" gradientUnits="userSpaceOnUse">
<stop stop-color="#969CA6"/>
<stop offset="1" stop-color="#495161"/>
</linearGradient>
<linearGradient id="paint1_linear_5191_581" x1="13.0001" y1="3.45947" x2="13.0001" y2="21.4907" gradientUnits="userSpaceOnUse">
<stop stop-color="#A6A296"/>
<stop offset="1" stop-color="#615749"/>
</linearGradient>
</defs>
</svg>
