<svg viewBox="0 0 25 25" fill="none" xmlns="http://www.w3.org/2000/svg">
<g id="Promo&#195;&#167;&#195;&#163;o=on">
<g id="Group">
<path id="Union" fill-rule="evenodd" clip-rule="evenodd" d="M5.81592 5.93158C5.81592 4.08578 7.31223 2.58948 9.15802 2.58948C10.7772 2.58948 12.1274 3.74086 12.4346 5.26953C12.4596 5.32726 12.4735 5.39096 12.4735 5.45791C12.4735 5.3899 12.4878 5.32524 12.5136 5.26678C12.8219 3.73948 14.1714 2.58948 15.7896 2.58948C17.6354 2.58948 19.1317 4.08578 19.1317 5.93158C19.1317 7.77737 17.6354 9.27368 15.7896 9.27368C15.5135 9.27368 15.2896 9.04982 15.2896 8.77368C15.2896 8.49754 15.5135 8.27368 15.7896 8.27368C17.0831 8.27368 18.1317 7.22509 18.1317 5.93158C18.1317 4.63807 17.0831 3.58948 15.7896 3.58948C14.4961 3.58948 13.4475 4.63807 13.4475 5.93158C13.4475 5.98809 13.4381 6.0424 13.4209 6.09306L13.4209 8.77369C13.4209 9.0353 13.2088 9.24737 12.9472 9.24737C12.6856 9.24737 12.4735 9.0353 12.4735 8.77369C12.4735 9.0353 12.2614 9.24737 11.9998 9.24737C11.7382 9.24737 11.5261 9.0353 11.5261 8.77369V6.09115C11.5093 6.04104 11.5001 5.98737 11.5001 5.93158C11.5001 4.63807 10.4515 3.58948 9.15802 3.58948C7.86451 3.58948 6.81592 4.63807 6.81592 5.93158C6.81592 7.22509 7.86451 8.27368 9.15802 8.27368C9.43416 8.27368 9.65802 8.49754 9.65802 8.77368C9.65802 9.04982 9.43416 9.27368 9.15802 9.27368C7.31223 9.27368 5.81592 7.77737 5.81592 5.93158Z" fill="url(#paint0_linear_11_385)"/>
<path id="Subtract" fill-rule="evenodd" clip-rule="evenodd" d="M4.421 8.30002C3.89778 8.30002 3.47363 8.72417 3.47363 9.24739V11.1421C3.47363 11.6653 3.89778 12.0895 4.421 12.0895H20.5262C21.0495 12.0895 21.4736 11.6653 21.4736 11.1421V9.24739C21.4736 8.72417 21.0495 8.30002 20.5262 8.30002H4.421ZM19.6735 12.5158H5.27356V19.2895C5.27356 20.2836 6.07944 21.0895 7.07356 21.0895H17.8735C18.8677 21.0895 19.6735 20.2836 19.6735 19.2895V12.5158ZM11.5262 18.721V14.9316C11.5262 14.4084 11.9503 13.9842 12.4735 13.9842C12.9968 13.9842 13.4209 14.4084 13.4209 14.9316V18.721C13.4209 19.2443 12.9968 19.6684 12.4735 19.6684C11.9503 19.6684 11.5262 19.2443 11.5262 18.721Z" fill="url(#paint1_linear_11_385)"/>
</g>
</g>
<defs>
<linearGradient id="paint0_linear_11_385" x1="12.4738" y1="2.58948" x2="12.4738" y2="9.27368" gradientUnits="userSpaceOnUse">
<stop stop-color="#969CA6"/>
<stop offset="1" stop-color="#495161"/>
</linearGradient>
<linearGradient id="paint1_linear_11_385" x1="12.4736" y1="8.30002" x2="12.4736" y2="21.0895" gradientUnits="userSpaceOnUse">
<stop stop-color="#969CA6"/>
<stop offset="1" stop-color="#495161"/>
</linearGradient>
</defs>
</svg>
