<svg viewBox="0 0 25 24" fill="none" xmlns="http://www.w3.org/2000/svg">
<g id="Promo&#195;&#167;&#195;&#163;o=on">
<g id="Group">
<g id="Union">
<path fill-rule="evenodd" clip-rule="evenodd" d="M5.84232 5.8421C5.84232 3.99631 7.33862 2.5 9.18442 2.5C10.8035 2.5 12.1538 3.65138 12.461 5.18005C12.486 5.23778 12.4999 5.30148 12.4999 5.36843C12.4999 5.30042 12.5142 5.23576 12.54 5.17731C12.8483 3.65 14.1978 2.5 15.816 2.5C17.6618 2.5 19.1581 3.99631 19.1581 5.8421C19.1581 7.6879 17.6618 9.1842 15.816 9.1842C15.5399 9.1842 15.316 8.96034 15.316 8.6842C15.316 8.40806 15.5399 8.1842 15.816 8.1842C17.1095 8.1842 18.1581 7.13561 18.1581 5.8421C18.1581 4.54859 17.1095 3.5 15.816 3.5C14.5225 3.5 13.4739 4.54859 13.4739 5.8421C13.4739 5.89861 13.4645 5.95293 13.4473 6.00359L13.4473 8.68421C13.4473 8.94582 13.2352 9.1579 12.9736 9.1579C12.712 9.1579 12.4999 8.94582 12.4999 8.68421C12.4999 8.94582 12.2878 9.1579 12.0262 9.1579C11.7646 9.1579 11.5525 8.94582 11.5525 8.68421V6.00167C11.5357 5.95156 11.5265 5.8979 11.5265 5.8421C11.5265 4.54859 10.4779 3.5 9.18442 3.5C7.89091 3.5 6.84232 4.54859 6.84232 5.8421C6.84232 7.13561 7.89091 8.1842 9.18442 8.1842C9.46056 8.1842 9.68442 8.40806 9.68442 8.6842C9.68442 8.96034 9.46056 9.1842 9.18442 9.1842C7.33862 9.1842 5.84232 7.6879 5.84232 5.8421Z" fill="url(#paint0_linear_5191_554)"/>
<path fill-rule="evenodd" clip-rule="evenodd" d="M5.84232 5.8421C5.84232 3.99631 7.33862 2.5 9.18442 2.5C10.8035 2.5 12.1538 3.65138 12.461 5.18005C12.486 5.23778 12.4999 5.30148 12.4999 5.36843C12.4999 5.30042 12.5142 5.23576 12.54 5.17731C12.8483 3.65 14.1978 2.5 15.816 2.5C17.6618 2.5 19.1581 3.99631 19.1581 5.8421C19.1581 7.6879 17.6618 9.1842 15.816 9.1842C15.5399 9.1842 15.316 8.96034 15.316 8.6842C15.316 8.40806 15.5399 8.1842 15.816 8.1842C17.1095 8.1842 18.1581 7.13561 18.1581 5.8421C18.1581 4.54859 17.1095 3.5 15.816 3.5C14.5225 3.5 13.4739 4.54859 13.4739 5.8421C13.4739 5.89861 13.4645 5.95293 13.4473 6.00359L13.4473 8.68421C13.4473 8.94582 13.2352 9.1579 12.9736 9.1579C12.712 9.1579 12.4999 8.94582 12.4999 8.68421C12.4999 8.94582 12.2878 9.1579 12.0262 9.1579C11.7646 9.1579 11.5525 8.94582 11.5525 8.68421V6.00167C11.5357 5.95156 11.5265 5.8979 11.5265 5.8421C11.5265 4.54859 10.4779 3.5 9.18442 3.5C7.89091 3.5 6.84232 4.54859 6.84232 5.8421C6.84232 7.13561 7.89091 8.1842 9.18442 8.1842C9.46056 8.1842 9.68442 8.40806 9.68442 8.6842C9.68442 8.96034 9.46056 9.1842 9.18442 9.1842C7.33862 9.1842 5.84232 7.6879 5.84232 5.8421Z" fill="url(#paint1_linear_5191_554)"/>
</g>
<g id="Subtract">
<path fill-rule="evenodd" clip-rule="evenodd" d="M4.4474 8.21045C3.92418 8.21045 3.50003 8.6346 3.50003 9.15782V11.0526C3.50003 11.5758 3.92418 11.9999 4.4474 11.9999H20.5526C21.0759 11.9999 21.5 11.5758 21.5 11.0526V9.15782C21.5 8.6346 21.0759 8.21045 20.5526 8.21045H4.4474ZM19.6999 12.4263H5.29996V19.1999C5.29996 20.1941 6.10584 20.9999 7.09995 20.9999H17.8999C18.8941 20.9999 19.6999 20.1941 19.6999 19.1999V12.4263ZM11.5526 18.6315V14.842C11.5526 14.3188 11.9767 13.8946 12.4999 13.8946C13.0232 13.8946 13.4473 14.3188 13.4473 14.842V18.6315C13.4473 19.1547 13.0232 19.5788 12.4999 19.5788C11.9767 19.5788 11.5526 19.1547 11.5526 18.6315Z" fill="url(#paint2_linear_5191_554)"/>
<path fill-rule="evenodd" clip-rule="evenodd" d="M4.4474 8.21045C3.92418 8.21045 3.50003 8.6346 3.50003 9.15782V11.0526C3.50003 11.5758 3.92418 11.9999 4.4474 11.9999H20.5526C21.0759 11.9999 21.5 11.5758 21.5 11.0526V9.15782C21.5 8.6346 21.0759 8.21045 20.5526 8.21045H4.4474ZM19.6999 12.4263H5.29996V19.1999C5.29996 20.1941 6.10584 20.9999 7.09995 20.9999H17.8999C18.8941 20.9999 19.6999 20.1941 19.6999 19.1999V12.4263ZM11.5526 18.6315V14.842C11.5526 14.3188 11.9767 13.8946 12.4999 13.8946C13.0232 13.8946 13.4473 14.3188 13.4473 14.842V18.6315C13.4473 19.1547 13.0232 19.5788 12.4999 19.5788C11.9767 19.5788 11.5526 19.1547 11.5526 18.6315Z" fill="url(#paint3_linear_5191_554)"/>
</g>
</g>
</g>
<defs>
<linearGradient id="paint0_linear_5191_554" x1="12.5002" y1="2.5" x2="12.5002" y2="9.1842" gradientUnits="userSpaceOnUse">
<stop stop-color="#969CA6"/>
<stop offset="1" stop-color="#495161"/>
</linearGradient>
<linearGradient id="paint1_linear_5191_554" x1="12.5002" y1="2.5" x2="12.5002" y2="9.1842" gradientUnits="userSpaceOnUse">
<stop stop-color="#A6A296"/>
<stop offset="1" stop-color="#615749"/>
</linearGradient>
<linearGradient id="paint2_linear_5191_554" x1="12.5" y1="8.21045" x2="12.5" y2="20.9999" gradientUnits="userSpaceOnUse">
<stop stop-color="#969CA6"/>
<stop offset="1" stop-color="#495161"/>
</linearGradient>
<linearGradient id="paint3_linear_5191_554" x1="12.5" y1="8.21045" x2="12.5" y2="20.9999" gradientUnits="userSpaceOnUse">
<stop stop-color="#A6A296"/>
<stop offset="1" stop-color="#615749"/>
</linearGradient>
</defs>
</svg>
