<svg viewBox="0 0 25 25" fill="none" xmlns="http://www.w3.org/2000/svg">
<g id="Promo&#195;&#167;&#195;&#163;o=on">
<g id="Group">
<path id="Subtract" fill-rule="evenodd" clip-rule="evenodd" d="M4.421 8.56134C3.89778 8.56134 3.47363 8.98549 3.47363 9.50871V11.4034C3.47363 11.9267 3.89778 12.3508 4.421 12.3508H20.5262C21.0495 12.3508 21.4736 11.9267 21.4736 11.4034V9.50871C21.4736 8.98549 21.0495 8.56134 20.5262 8.56134H4.421ZM19.6735 12.7771H5.27356V19.5508C5.27356 20.5449 6.07944 21.3508 7.07356 21.3508H17.8735C18.8677 21.3508 19.6735 20.5449 19.6735 19.5508V12.7771ZM11.5262 18.9824V15.1929C11.5262 14.6697 11.9503 14.2455 12.4735 14.2455C12.9968 14.2455 13.4209 14.6697 13.4209 15.1929V18.9824C13.4209 19.5056 12.9968 19.9297 12.4735 19.9297C11.9503 19.9297 11.5262 19.5056 11.5262 18.9824Z" fill="currentColor"/>
<path id="Union" d="M12.4735 5.71923C12.4735 5.45762 12.2614 5.24554 11.9998 5.24554C11.7382 5.24554 11.5261 5.45762 11.5261 5.71923V9.03501C11.5261 9.29662 11.7382 9.5087 11.9998 9.5087C12.2614 9.5087 12.4735 9.29662 12.4735 9.03501C12.4735 9.29662 12.6856 9.5087 12.9472 9.5087C13.2088 9.5087 13.4209 9.29662 13.4209 9.03501L13.4209 5.71923C13.4209 5.45762 13.2088 5.24554 12.9472 5.24554C12.6856 5.24554 12.4735 5.45762 12.4735 5.71923Z" fill="currentColor"/>
<path id="Vector" d="M12.0001 6.19293C12.0001 4.62328 10.7277 3.35083 9.15802 3.35083C7.58837 3.35083 6.31592 4.62328 6.31592 6.19293C6.31592 7.76258 7.58837 9.03503 9.15802 9.03503" stroke="currentColor" stroke-linecap="round" stroke-linejoin="round"/>
<path id="Vector_2" d="M15.7896 9.03503C17.3593 9.03503 18.6317 7.76258 18.6317 6.19293C18.6317 4.62328 17.3593 3.35083 15.7896 3.35083C14.22 3.35083 12.9475 4.62328 12.9475 6.19293" stroke="currentColor" stroke-linecap="round" stroke-linejoin="round"/>
</g>
</g>
</svg>
