<svg viewBox="0 0 24 25" fill="none" xmlns="http://www.w3.org/2000/svg">
<g id="Promo&#195;&#167;&#195;&#163;o=on">
<g id="Group">
<g id="Union">
<path fill-rule="evenodd" clip-rule="evenodd" d="M14.9375 7.60943H3.9375V6.59229C3.9375 5.48772 4.83293 4.59229 5.9375 4.59229H12.9375C14.0421 4.59229 14.9375 5.48772 14.9375 6.59229V7.60943ZM3.9375 8.76568H18.9375C20.0421 8.76568 20.9375 9.66111 20.9375 10.7657V12.5235H17.5625C16.4493 12.5235 15.5469 13.4259 15.5469 14.5391C15.5469 15.6523 16.4493 16.5547 17.5625 16.5547H20.9375V18.3907C20.9375 19.4952 20.0421 20.3907 18.9375 20.3907H5.9375C4.83293 20.3907 3.9375 19.4952 3.9375 18.3907V8.76568Z" fill="url(#paint0_linear_5191_564)"/>
<path fill-rule="evenodd" clip-rule="evenodd" d="M14.9375 7.60943H3.9375V6.59229C3.9375 5.48772 4.83293 4.59229 5.9375 4.59229H12.9375C14.0421 4.59229 14.9375 5.48772 14.9375 6.59229V7.60943ZM3.9375 8.76568H18.9375C20.0421 8.76568 20.9375 9.66111 20.9375 10.7657V12.5235H17.5625C16.4493 12.5235 15.5469 13.4259 15.5469 14.5391C15.5469 15.6523 16.4493 16.5547 17.5625 16.5547H20.9375V18.3907C20.9375 19.4952 20.0421 20.3907 18.9375 20.3907H5.9375C4.83293 20.3907 3.9375 19.4952 3.9375 18.3907V8.76568Z" fill="url(#paint1_linear_5191_564)"/>
</g>
<circle id="Ellipse 1" cx="17.6484" cy="14.5781" r="0.648438" fill="url(#paint2_linear_5191_564)"/>
</g>
</g>
<defs>
<linearGradient id="paint0_linear_5191_564" x1="9.4375" y1="17.8992" x2="9.4375" y2="4.59229" gradientUnits="userSpaceOnUse">
<stop stop-color="#495161"/>
<stop offset="1" stop-color="#969CA6"/>
</linearGradient>
<linearGradient id="paint1_linear_5191_564" x1="12.4375" y1="4.59229" x2="12.4375" y2="20.3907" gradientUnits="userSpaceOnUse">
<stop stop-color="#A6A296"/>
<stop offset="1" stop-color="#615749"/>
</linearGradient>
<linearGradient id="paint2_linear_5191_564" x1="17.6484" y1="13.9297" x2="17.6484" y2="15.2266" gradientUnits="userSpaceOnUse">
<stop stop-color="#969CA6"/>
<stop offset="1" stop-color="#495161"/>
</linearGradient>
</defs>
</svg>
