<svg width="126" height="119" viewBox="0 0 126 119" fill="none" xmlns="http://www.w3.org/2000/svg">
<path fill-rule="evenodd" clip-rule="evenodd" d="M74.6238 97.2533H17.1994C13.1576 97.2533 9.84912 93.9351 9.84912 89.8797V7.98964C9.84912 3.93423 13.1576 0.617676 17.1994 0.617676H74.6238C78.6673 0.617676 81.9757 3.93423 81.9757 7.98964V89.8797C81.9757 93.9351 78.6673 97.2533 74.6238 97.2533Z" fill="#252144"/>
<path fill-rule="evenodd" clip-rule="evenodd" d="M69.722 100.755H12.2975C8.2557 100.755 4.94727 97.4366 4.94727 93.3812V11.4911C4.94727 7.43569 8.2557 4.11914 12.2975 4.11914H69.722C73.7654 4.11914 77.0739 7.43569 77.0739 11.4911V93.3812C77.0739 97.4366 73.7654 100.755 69.722 100.755Z" fill="#2C294D"/>
<path fill-rule="evenodd" clip-rule="evenodd" d="M64.954 103.519H7.41085C3.36069 103.519 0.0454102 100.214 0.0454102 96.1756V14.6246C0.0454102 10.586 3.36069 7.2832 7.41085 7.2832H64.954C69.0058 7.2832 72.3211 10.586 72.3211 14.6246V96.1756C72.3211 100.214 69.0058 103.519 64.954 103.519Z" fill="#3B414D"/>
<path fill-rule="evenodd" clip-rule="evenodd" d="M64.954 103.519H7.41085C3.36069 103.519 0.0454102 100.214 0.0454102 96.1756V14.6246C0.0454102 10.586 3.36069 7.2832 7.41085 7.2832H64.954C69.0058 7.2832 72.3211 10.586 72.3211 14.6246V96.1756C72.3211 100.214 69.0058 103.519 64.954 103.519Z" fill="#3B3466"/>
<path fill-rule="evenodd" clip-rule="evenodd" d="M56.6597 32.1293H14.1571C12.9433 32.1293 11.9497 31.1841 11.9497 30.0293C11.9497 28.873 12.9433 27.9277 14.1571 27.9277H56.6597C57.8735 27.9277 58.867 28.873 58.867 30.0293C58.867 31.1841 57.8735 32.1293 56.6597 32.1293Z" fill="#BDB8E1"/>
<path fill-rule="evenodd" clip-rule="evenodd" d="M56.6597 44.7338H14.1571C12.9433 44.7338 11.9497 43.7885 11.9497 42.6338C11.9497 41.4775 12.9433 40.5322 14.1571 40.5322H56.6597C57.8735 40.5322 58.867 41.4775 58.867 42.6338C58.867 43.7885 57.8735 44.7338 56.6597 44.7338Z" fill="#BDB8E1"/>
<path fill-rule="evenodd" clip-rule="evenodd" d="M56.6597 57.3388H14.1571C12.9433 57.3388 11.9497 56.3935 11.9497 55.2388C11.9497 54.084 12.9433 53.1372 14.1571 53.1372H56.6597C57.8735 53.1372 58.867 54.084 58.867 55.2388C58.867 56.3935 57.8735 57.3388 56.6597 57.3388Z" fill="#BDB8E1"/>
<path fill-rule="evenodd" clip-rule="evenodd" d="M56.6597 69.9432H14.1571C12.9433 69.9432 11.9497 68.998 11.9497 67.8433C11.9497 66.6869 12.9433 65.7417 14.1571 65.7417H56.6597C57.8735 65.7417 58.867 66.6869 58.867 67.8433C58.867 68.998 57.8735 69.9432 56.6597 69.9432Z" fill="#BDB8E1"/>
<path fill-rule="evenodd" clip-rule="evenodd" d="M36.3427 82.5477H14.1665C12.9475 82.5477 11.9497 81.6025 11.9497 80.4478C11.9497 79.2914 12.9475 78.3462 14.1665 78.3462H36.3427C37.5617 78.3462 38.5595 79.2914 38.5595 80.4478C38.5595 81.6025 37.5617 82.5477 36.3427 82.5477Z" fill="#BDB8E1"/>
<path fill-rule="evenodd" clip-rule="evenodd" d="M72.2574 65.1099C62.9614 72.727 49.7738 72.3823 40.9159 64.911C39.7854 63.9412 38.7238 62.8726 37.7525 61.6876C37.2523 61.0793 36.7857 60.4565 36.3523 59.8065C35.4854 58.5083 34.7487 57.1425 34.1723 55.7496C33.1472 53.3918 32.5347 50.9371 32.3149 48.4408C31.5838 40.6081 34.637 32.5581 41.1726 27.2045C47.7243 21.8345 56.2172 20.4369 63.7564 22.678C66.1582 23.3978 68.4469 24.4807 70.5592 25.9347C71.8121 26.7895 72.9891 27.7782 74.0937 28.8833C74.6444 29.4339 75.1634 30.0154 75.6617 30.6252C76.6347 31.8104 77.4885 33.0607 78.2014 34.3597C83.7903 44.5095 81.5359 57.5073 72.2574 65.1099Z" fill="white" fill-opacity="0.1"/>
<path fill-rule="evenodd" clip-rule="evenodd" d="M70.0561 63.21C60.3846 71.1376 46.1257 69.7217 38.1981 60.0501C30.2809 50.3895 31.6954 36.1289 41.3684 28.203C51.029 20.2859 65.288 21.7001 73.2052 31.3607C81.1312 41.0321 79.7167 55.2928 70.0561 63.21ZM78.179 27.2889C68.0052 14.8748 49.7038 13.0596 37.2897 23.2333C24.8775 33.4056 23.0513 51.7175 33.2234 64.1314C42.483 75.4264 58.5018 77.9511 70.6702 70.6381C71.8588 69.9227 73.0165 69.1034 74.1339 68.1891C75.2498 67.273 76.2806 66.2989 77.2139 65.2738C86.7749 54.7774 87.4368 38.5854 78.179 27.2889Z" fill="#3B3466"/>
<path fill-rule="evenodd" clip-rule="evenodd" d="M114.346 115.169L113.825 115.596C110.377 118.423 105.24 117.914 102.413 114.464L76.3221 82.6274L89.3872 71.9201L115.478 103.757C118.306 107.207 117.796 112.342 114.346 115.169Z" fill="url(#paint0_linear_985_456)"/>
<path fill-rule="evenodd" clip-rule="evenodd" d="M77.9262 64.4502L85.6363 73.8581L78.9574 79.33L71.2491 69.9223C72.462 69.1923 73.6415 68.3561 74.7834 67.4233C75.922 66.4902 76.9738 65.4962 77.9262 64.4502Z" fill="#2C294D"/>
<path fill-rule="evenodd" clip-rule="evenodd" d="M115.08 103.358L102.098 113.995L100.183 111.657L113.163 101.019L115.08 103.358Z" fill="#7041F3"/>
<path fill-rule="evenodd" clip-rule="evenodd" d="M90.0036 72.3944L76.6661 83.3251L75.0421 81.3437L88.3796 70.413L90.0036 72.3944Z" fill="#7041F3"/>
<defs>
<linearGradient id="paint0_linear_985_456" x1="99.103" y1="72.8838" x2="94.8178" y2="116.088" gradientUnits="userSpaceOnUse">
<stop stop-color="#5414C9"/>
<stop offset="1" stop-color="#9462F2"/>
</linearGradient>
</defs>
</svg>
