<svg viewBox="0 0 126 119" fill="none" xmlns="http://www.w3.org/2000/svg">
<g id="search">
<g id="documents">
<path id="Fill 1" fill-rule="evenodd" clip-rule="evenodd" d="M74.6238 97.5989H17.1994C13.1576 97.5989 9.84912 94.2807 9.84912 90.2253V8.33524C9.84912 4.27983 13.1576 0.963276 17.1994 0.963276H74.6238C78.6673 0.963276 81.9757 4.27983 81.9757 8.33524V90.2253C81.9757 94.2807 78.6673 97.5989 74.6238 97.5989Z" fill="#545451"/>
<path id="Fill 3" fill-rule="evenodd" clip-rule="evenodd" d="M69.722 101.1H12.2975C8.2557 101.1 4.94727 97.782 4.94727 93.7266V11.8365C4.94727 7.78112 8.2557 4.46457 12.2975 4.46457H69.722C73.7654 4.46457 77.0739 7.78112 77.0739 11.8365V93.7266C77.0739 97.782 73.7654 101.1 69.722 101.1Z" fill="#444443"/>
<path id="Fill 5" fill-rule="evenodd" clip-rule="evenodd" d="M64.954 103.864H7.41085C3.36069 103.864 0.0454102 100.56 0.0454102 96.5212V14.9702C0.0454102 10.9316 3.36069 7.62878 7.41085 7.62878H64.954C69.0058 7.62878 72.3211 10.9316 72.3211 14.9702V96.5212C72.3211 100.56 69.0058 103.864 64.954 103.864Z" fill="#3B414D"/>
<path id="Fill 8" fill-rule="evenodd" clip-rule="evenodd" d="M64.954 103.864H7.41085C3.36069 103.864 0.0454102 100.56 0.0454102 96.5212V14.9702C0.0454102 10.9316 3.36069 7.62878 7.41085 7.62878H64.954C69.0058 7.62878 72.3211 10.9316 72.3211 14.9702V96.5212C72.3211 100.56 69.0058 103.864 64.954 103.864Z" fill="#262624"/>
<path id="Fill 11" fill-rule="evenodd" clip-rule="evenodd" d="M56.6597 32.4749H14.1571C12.9433 32.4749 11.9497 31.5297 11.9497 30.3749C11.9497 29.2186 12.9433 28.2733 14.1571 28.2733H56.6597C57.8735 28.2733 58.867 29.2186 58.867 30.3749C58.867 31.5297 57.8735 32.4749 56.6597 32.4749Z" fill="#545450"/>
<path id="Fill 13" fill-rule="evenodd" clip-rule="evenodd" d="M56.6597 45.0795H14.1571C12.9433 45.0795 11.9497 44.1343 11.9497 42.9796C11.9497 41.8232 12.9433 40.878 14.1571 40.878H56.6597C57.8735 40.878 58.867 41.8232 58.867 42.9796C58.867 44.1343 57.8735 45.0795 56.6597 45.0795Z" fill="#545450"/>
<path id="Fill 15" fill-rule="evenodd" clip-rule="evenodd" d="M56.6597 57.6842H14.1571C12.9433 57.6842 11.9497 56.739 11.9497 55.5842C11.9497 54.4294 12.9433 53.4826 14.1571 53.4826H56.6597C57.8735 53.4826 58.867 54.4294 58.867 55.5842C58.867 56.739 57.8735 57.6842 56.6597 57.6842Z" fill="#545450"/>
<path id="Fill 17" fill-rule="evenodd" clip-rule="evenodd" d="M56.6597 70.2888H14.1571C12.9433 70.2888 11.9497 69.3436 11.9497 68.1889C11.9497 67.0325 12.9433 66.0873 14.1571 66.0873H56.6597C57.8735 66.0873 58.867 67.0325 58.867 68.1889C58.867 69.3436 57.8735 70.2888 56.6597 70.2888Z" fill="#545450"/>
<path id="Fill 19" fill-rule="evenodd" clip-rule="evenodd" d="M36.3427 82.8935H14.1665C12.9475 82.8935 11.9497 81.9483 11.9497 80.7935C11.9497 79.6372 12.9475 78.6919 14.1665 78.6919H36.3427C37.5617 78.6919 38.5595 79.6372 38.5595 80.7935C38.5595 81.9483 37.5617 82.8935 36.3427 82.8935Z" fill="#545450"/>
</g>
<g id="search_2">
<path id="Fill 21" fill-rule="evenodd" clip-rule="evenodd" d="M72.2574 65.4559C62.9614 73.0729 49.7738 72.7282 40.9159 65.2569C39.7854 64.2871 38.7238 63.2185 37.7525 62.0335C37.2523 61.4253 36.7857 60.8024 36.3523 60.1525C35.4854 58.8543 34.7487 57.4885 34.1723 56.0955C33.1472 53.7378 32.5347 51.2831 32.3149 48.7868C31.5838 40.9541 34.637 32.904 41.1726 27.5504C47.7243 22.1804 56.2172 20.7828 63.7564 23.0239C66.1582 23.7438 68.4469 24.8267 70.5592 26.2806C71.8121 27.1354 72.9891 28.1241 74.0937 29.2292C74.6444 29.7798 75.1634 30.3613 75.6617 30.9712C76.6347 32.1563 77.4885 33.4067 78.2014 34.7057C83.7903 44.8555 81.5359 57.8532 72.2574 65.4559Z" fill="white" fill-opacity="0.1"/>
<path id="Fill 23" fill-rule="evenodd" clip-rule="evenodd" d="M70.0561 63.5558C60.3846 71.4834 46.1257 70.0675 38.1981 60.3959C30.2809 50.7353 31.6954 36.4747 41.3684 28.5488C51.029 20.6317 65.288 22.046 73.2052 31.7066C81.1312 41.378 79.7167 55.6386 70.0561 63.5558ZM78.179 27.6347C68.0052 15.2206 49.7038 13.4054 37.2897 23.5791C24.8775 33.7514 23.0513 52.0633 33.2234 64.4772C42.483 75.7723 58.5018 78.2969 70.6702 70.9839C71.8588 70.2685 73.0165 69.4492 74.1339 68.5349C75.2498 67.6189 76.2806 66.6447 77.2139 65.6196C86.7749 55.1232 87.4368 38.9312 78.179 27.6347Z" fill="#444443"/>
<path id="Fill 25" fill-rule="evenodd" clip-rule="evenodd" d="M114.346 115.515L113.825 115.942C110.377 118.769 105.24 118.26 102.413 114.81L76.3221 82.9733L89.3872 72.266L115.478 104.103C118.306 107.552 117.796 112.688 114.346 115.515Z" fill="url(#paint0_linear_5191_3230)"/>
<path id="Fill 27" fill-rule="evenodd" clip-rule="evenodd" d="M77.9262 64.796L85.6363 74.2039L78.9574 79.6758L71.2491 70.2681C72.462 69.5381 73.6415 68.7019 74.7834 67.7691C75.922 66.836 76.9738 65.842 77.9262 64.796Z" fill="#262624"/>
<path id="Fill 29" fill-rule="evenodd" clip-rule="evenodd" d="M115.08 103.703L102.098 114.341L100.183 112.002L113.163 101.365L115.08 103.703Z" fill="#F89817"/>
<path id="Fill 31" fill-rule="evenodd" clip-rule="evenodd" d="M90.0036 72.7401L76.6661 83.6707L75.0421 81.6893L88.3796 70.7586L90.0036 72.7401Z" fill="#F89817"/>
</g>
</g>
<defs>
<linearGradient id="paint0_linear_5191_3230" x1="101.246" y1="51.6276" x2="53.7564" y2="90.5465" gradientUnits="userSpaceOnUse">
<stop stop-color="#F7C582"/>
<stop offset="1" stop-color="#FBA531"/>
</linearGradient>
</defs>
</svg>
