<svg width="24" height="24" viewBox="0 0 24 24" fill="none" xmlns="http://www.w3.org/2000/svg">
<path d="M12.2501 17.515L5.17671 17.5149C3.9747 17.5148 3.00027 16.5404 3.00023 15.3384L3 7.17658C2.99997 5.9745 3.97444 5 5.17652 5H18.2347C19.437 5 20.4117 5.97419 20.4117 7.17645L20.4117 8.80891M3.54371 8.80877H19.8676M17.419 14.5223V13.6154C17.419 12.8641 18.0281 12.2551 18.7794 12.2551C19.5306 12.2551 20.1397 12.8641 20.1397 13.6154V14.9758M16.9656 18.6033H20.5931C21.094 18.6033 21.5 18.1973 21.5 17.6964V15.8826C21.5 15.3818 21.094 14.9758 20.5931 14.9758H16.9656C16.4647 14.9758 16.0587 15.3818 16.0587 15.8826V17.6964C16.0587 18.1973 16.4647 18.6033 16.9656 18.6033Z" stroke="currentColor" stroke-linecap="round" stroke-linejoin="round"/>
</svg>
