<svg width="31" height="30" viewBox="0 0 31 30" fill="none" xmlns="http://www.w3.org/2000/svg">
<path d="M25.6369 19.6176C25.6279 19.5927 25.614 19.5699 25.596 19.5504C25.578 19.5309 25.5563 19.5151 25.5321 19.5039C25.5079 19.4928 25.4818 19.4865 25.4551 19.4854C25.4285 19.4843 25.4019 19.4885 25.3768 19.4976L23.8317 20.0538V6.60036C23.8317 5.66038 23.0641 4.90039 22.1148 4.90039H8.98588C8.03656 4.90039 7.26902 5.66038 7.26902 6.60036V20.0538L5.72132 19.4964C5.6909 19.4855 5.6583 19.4821 5.62626 19.4864C5.59422 19.4907 5.56369 19.5025 5.53722 19.5208C5.51075 19.5392 5.48912 19.5636 5.47415 19.592C5.45917 19.6203 5.4513 19.6518 5.45117 19.6838V21.1738C5.45117 21.2576 5.50419 21.3326 5.58499 21.3613L15.2726 24.8525C15.4513 24.9164 15.6469 24.9164 15.8255 24.8525L25.5157 21.3651C25.555 21.3507 25.5888 21.3249 25.6128 21.2909C25.6367 21.2569 25.6495 21.2165 25.6495 21.1751V19.6851C25.6493 19.6612 25.645 19.6376 25.6369 19.6151V19.6176ZM15.5503 23.0375L9.08687 20.7088V6.70036H22.0138V20.7088L15.5503 23.0375Z" fill="currentColor"/>
<path d="M14.7914 16.8727C14.0874 16.8727 13.5685 16.7041 13.2349 16.3667C12.9012 16.0257 12.7344 15.5087 12.7344 14.8157C12.7344 14.6947 12.7802 14.5884 12.8719 14.4967C12.9672 14.4014 13.0754 14.3537 13.1964 14.3537C13.3174 14.3537 13.4237 14.4014 13.5154 14.4967C13.6107 14.5884 13.6584 14.6947 13.6584 14.8157C13.6584 15.2594 13.739 15.5601 13.9004 15.7177C14.0617 15.8717 14.3587 15.9487 14.7914 15.9487H16.3094C16.7457 15.9487 17.0427 15.8717 17.2004 15.7177C17.3617 15.5601 17.4424 15.2594 17.4424 14.8157C17.4424 14.3684 17.3617 14.0677 17.2004 13.9137C17.0427 13.7597 16.7457 13.6827 16.3094 13.6827H14.9564C14.2927 13.6827 13.7977 13.5287 13.4714 13.2207C13.1487 12.9127 12.9874 12.4287 12.9874 11.7687C12.9874 11.1014 13.1487 10.6082 13.4714 10.2892C13.794 9.97023 14.2854 9.81073 14.9454 9.81073H16.2764C16.9364 9.81073 17.4277 9.97023 17.7504 10.2892C18.073 10.6082 18.2344 11.0977 18.2344 11.7577C18.2344 11.8787 18.1867 11.9869 18.0914 12.0822C17.9997 12.1739 17.8934 12.2197 17.7724 12.2197C17.6514 12.2197 17.5432 12.1739 17.4479 12.0822C17.3562 11.9869 17.3104 11.8787 17.3104 11.7577C17.3104 11.3544 17.2389 11.0831 17.0959 10.9437C16.9565 10.8044 16.6834 10.7347 16.2764 10.7347H14.9454C14.5384 10.7347 14.2634 10.8062 14.1204 10.9492C13.981 11.0886 13.9114 11.3617 13.9114 11.7687C13.9114 12.1684 13.9829 12.4342 14.1259 12.5662C14.2689 12.6946 14.5457 12.7587 14.9564 12.7587H16.3094C17.0024 12.7587 17.5175 12.9292 17.8549 13.2702C18.1959 13.6076 18.3664 14.1227 18.3664 14.8157C18.3664 15.5087 18.1959 16.0257 17.8549 16.3667C17.5175 16.7041 17.0024 16.8727 16.3094 16.8727H14.7914ZM15.5504 17.8627C15.2937 17.8627 15.1654 17.7344 15.1654 17.4777V13.4517L15.2314 12.9677V9.06273C15.2314 8.80607 15.3597 8.67773 15.6164 8.67773C15.873 8.67773 16.0014 8.80607 16.0014 9.06273V13.0117L15.9354 13.4297V17.4777C15.9354 17.7344 15.807 17.8627 15.5504 17.8627Z" fill="currentColor"/>
</svg>
