<svg width="28" height="28" viewBox="0 0 28 28" fill="none" xmlns="http://www.w3.org/2000/svg">
<rect x="3.5" y="4.5" width="20" height="18" rx="2.5" stroke="currentColor"/>
<rect x="6.31543" y="8.4707" width="14.3684" height="2.23529" rx="1.11765" fill="currentColor"/>
<rect x="6.32031" y="16.2942" width="6.63158" height="2.23529" rx="1.11765" fill="currentColor"/>
<path d="M17.5179 13.1757C17.7841 12.9414 18.2159 12.9414 18.4821 13.1757L20.3003 14.7757C20.5666 15.0101 20.5666 15.39 20.3003 15.6243C20.034 15.8586 19.6023 15.8586 19.3361 15.6243L18.6818 15.0485V18.4C18.6818 18.7314 18.3766 19 18 19C17.6234 19 17.3182 18.7314 17.3182 18.4V15.0485L16.6639 15.6243C16.3977 15.8586 15.966 15.8586 15.6997 15.6243C15.4334 15.39 15.4334 15.0101 15.6997 14.7757L17.5179 13.1757Z" fill="currentColor"/>
</svg>
