<svg xmlns="http://www.w3.org/2000/svg" width="30" height="30" viewBox="0 0 30 30" fill="none">
<path d="M21.6367 25.2968H8.40589C6.47839 25.2968 4.9082 23.7769 4.9082 21.9048V13.9331C4.9082 12.9719 5.33094 12.0509 6.07074 11.4117L12.6887 5.64938C14.0173 4.49187 16.0253 4.49187 17.3589 5.64938L23.9769 11.4067C24.7167 12.0509 25.1394 12.9668 25.1394 13.9281V21.9048C25.1344 23.7769 23.5642 25.2968 21.6367 25.2968ZM15.0238 6.06709C14.4903 6.06709 13.9569 6.2533 13.5341 6.62068L6.91623 12.378C6.45826 12.7756 6.19656 13.3443 6.19656 13.9331V21.9098C6.19656 23.0724 7.18799 24.0135 8.40589 24.0135H21.6367C22.8546 24.0135 23.846 23.0673 23.846 21.9098V13.9331C23.846 13.3443 23.5843 12.7756 23.1263 12.378L16.5135 6.62068C16.0907 6.24826 15.5573 6.06709 15.0238 6.06709Z" fill="currentColor"/>
</svg>