<svg viewBox="0 0 28 28" fill="none" xmlns="http://www.w3.org/2000/svg">
<path d="M22.5 21.2044C22.5 23.1357 21.2705 24.5 20.0047 24.5H7.99531C6.72955 24.5 5.5 23.1357 5.5 21.2044C5.5 19.347 5.72745 17.3987 6.37492 15.9334C6.69654 15.2055 7.11163 14.6202 7.63151 14.218C8.10235 13.8538 8.67986 13.6234 9.40181 13.5881C10.6124 14.7186 12.2213 15.4167 14 15.4167C15.7787 15.4167 17.3876 14.7186 18.5982 13.5881C19.3201 13.6234 19.8976 13.8538 20.3685 14.218C20.8884 14.6202 21.3035 15.2055 21.6251 15.9334C22.2726 17.3987 22.5 19.347 22.5 21.2044ZM18.9 8.5C18.9 11.269 16.6965 13.5 14 13.5C11.3035 13.5 9.1 11.269 9.1 8.5C9.1 5.73099 11.3035 3.5 14 3.5C16.6965 3.5 18.9 5.73099 18.9 8.5Z" stroke="currentColor"/>
<rect x="9" y="20" width="10" height="1.5" rx="0.75" fill="currentColor"/>
</svg>