<svg width="31" height="30" viewBox="0 0 31 30" fill="none" xmlns="http://www.w3.org/2000/svg">
<path d="M15.3488 18.3433C16.6716 18.3433 17.9647 17.951 19.0645 17.2161C20.1644 16.4812 21.0217 15.4366 21.5279 14.2145C22.0341 12.9924 22.1665 11.6476 21.9085 10.3502C21.6504 9.05283 21.0134 7.8611 20.078 6.92574C19.1427 5.99037 17.951 5.35338 16.6536 5.09531C15.3562 4.83725 14.0114 4.96969 12.7893 5.47591C11.5672 5.98213 10.5226 6.83938 9.78769 7.93925C9.05278 9.03912 8.66052 10.3322 8.66052 11.655C8.66191 13.4284 9.367 15.1288 10.621 16.3828C11.875 17.6368 13.5753 18.3419 15.3488 18.3433ZM15.3488 6.63886C16.3409 6.63886 17.3107 6.93305 18.1356 7.48424C18.9605 8.03542 19.6034 8.81884 19.9831 9.73543C20.3628 10.652 20.4621 11.6606 20.2685 12.6336C20.075 13.6067 19.5973 14.5005 18.8957 15.202C18.1942 15.9035 17.3004 16.3813 16.3274 16.5748C15.3543 16.7684 14.3457 16.669 13.4291 16.2894C12.5126 15.9097 11.7291 15.2668 11.178 14.4419C10.6268 13.617 10.3326 12.6471 10.3326 11.655C10.334 10.3251 10.8629 9.05 11.8033 8.10959C12.7437 7.16917 14.0188 6.64024 15.3488 6.63886ZM22.455 19.1793H8.24251C7.46646 19.1793 6.72219 19.4876 6.17344 20.0363C5.62469 20.5851 5.31641 21.3293 5.31641 22.1054C5.31641 22.8814 5.62469 23.6257 6.17344 24.1745C6.72219 24.7232 7.46646 25.0315 8.24251 25.0315H22.455C23.2311 25.0315 23.9753 24.7232 24.5241 24.1745C25.0728 23.6257 25.3811 22.8814 25.3811 22.1054C25.3811 21.3293 25.0728 20.5851 24.5241 20.0363C23.9753 19.4876 23.2311 19.1793 22.455 19.1793ZM22.455 23.3594H8.24251C7.90991 23.3594 7.59094 23.2273 7.35577 22.9921C7.12059 22.757 6.98846 22.438 6.98846 22.1054C6.98846 21.7728 7.12059 21.4538 7.35577 21.2187C7.59094 20.9835 7.90991 20.8514 8.24251 20.8514H22.455C22.7876 20.8514 23.1066 20.9835 23.3417 21.2187C23.5769 21.4538 23.709 21.7728 23.709 22.1054C23.709 22.438 23.5769 22.757 23.3417 22.9921C23.1066 23.2273 22.7876 23.3594 22.455 23.3594Z" fill="currentColor"/>
</svg>
