<svg width="30" height="30" viewBox="0 0 30 30" fill="none" xmlns="http://www.w3.org/2000/svg">
<path d="M14.9991 18.3433C16.322 18.3433 17.6151 17.951 18.7149 17.2161C19.8148 16.4812 20.6721 15.4366 21.1783 14.2145C21.6845 12.9924 21.8169 11.6476 21.5589 10.3502C21.3008 9.05283 20.6638 7.8611 19.7284 6.92574C18.7931 5.99037 17.6013 5.35338 16.304 5.09531C15.0066 4.83725 13.6618 4.96969 12.4397 5.47591C11.2176 5.98213 10.173 6.83938 9.43808 7.93925C8.70317 9.03912 8.31091 10.3322 8.31091 11.655C8.3123 13.4284 9.01739 15.1288 10.2714 16.3828C11.5254 17.6368 13.2257 18.3419 14.9991 18.3433ZM14.9991 6.63886C15.9913 6.63886 16.9611 6.93305 17.786 7.48424C18.6109 8.03542 19.2538 8.81884 19.6335 9.73543C20.0131 10.652 20.1125 11.6606 19.9189 12.6336C19.7254 13.6067 19.2476 14.5005 18.5461 15.202C17.8446 15.9035 16.9508 16.3813 15.9778 16.5748C15.0047 16.7684 13.9961 16.669 13.0795 16.2894C12.163 15.9097 11.3795 15.2668 10.8283 14.4419C10.2772 13.617 9.98297 12.6471 9.98297 11.655C9.98435 10.3251 10.5133 9.05 11.4537 8.10959C12.3941 7.16917 13.6692 6.64024 14.9991 6.63886ZM22.1054 19.1793H7.8929C7.11685 19.1793 6.37258 19.4876 5.82383 20.0363C5.27508 20.5851 4.9668 21.3293 4.9668 22.1054C4.9668 22.8814 5.27508 23.6257 5.82383 24.1745C6.37258 24.7232 7.11685 25.0315 7.8929 25.0315H22.1054C22.8814 25.0315 23.6257 24.7232 24.1745 24.1745C24.7232 23.6257 25.0315 22.8814 25.0315 22.1054C25.0315 21.3293 24.7232 20.5851 24.1745 20.0363C23.6257 19.4876 22.8814 19.1793 22.1054 19.1793ZM22.1054 23.3594H7.8929C7.56031 23.3594 7.24133 23.2273 7.00616 22.9921C6.77098 22.757 6.63885 22.438 6.63885 22.1054C6.63885 21.7728 6.77098 21.4538 7.00616 21.2187C7.24133 20.9835 7.56031 20.8514 7.8929 20.8514H22.1054C22.438 20.8514 22.757 20.9835 22.9921 21.2187C23.2273 21.4538 23.3594 21.7728 23.3594 22.1054C23.3594 22.438 23.2273 22.757 22.9921 22.9921C22.757 23.2273 22.438 23.3594 22.1054 23.3594Z" fill="currentColor"/>
<path d="M12.9102 12.4925C13.132 12.4925 13.3446 12.4044 13.5014 12.2476C13.6582 12.0908 13.7463 11.8782 13.7463 11.6564V10.8204C13.7463 10.5987 13.6582 10.386 13.5014 10.2292C13.3446 10.0725 13.132 9.98438 12.9102 9.98438C12.6885 9.98438 12.4759 10.0725 12.3191 10.2292C12.1623 10.386 12.0742 10.5987 12.0742 10.8204V11.6564C12.0742 11.8782 12.1623 12.0908 12.3191 12.2476C12.4759 12.4044 12.6885 12.4925 12.9102 12.4925ZM17.0904 12.4925C17.3121 12.4925 17.5248 12.4044 17.6816 12.2476C17.8383 12.0908 17.9264 11.8782 17.9264 11.6564V10.8204C17.9264 10.5987 17.8383 10.386 17.6816 10.2292C17.5248 10.0725 17.3121 9.98438 17.0904 9.98438C16.8687 9.98438 16.656 10.0725 16.4992 10.2292C16.3424 10.386 16.2544 10.5987 16.2544 10.8204V11.6564C16.2544 11.8782 16.3424 12.0908 16.4992 12.2476C16.656 12.4044 16.8687 12.4925 17.0904 12.4925Z" fill="currentColor"/>
</svg>
