<svg width="31" height="30" viewBox="0 0 31 30" fill="none" xmlns="http://www.w3.org/2000/svg">
  <path d="M24.81 7.86002C24.46 7.50002 23.97 7.30002 23.47 7.30002H19.49L20.2 6.06002C20.3 5.90002 20.32 5.71002 20.27 5.52002C20.23 5.34002 20.11 5.19002 19.94 5.09002C19.86 5.05002 19.77 5.02002 19.68 5.00002C19.59 4.99002 19.49 5.00002 19.4 5.02002C19.22 5.07002 19.07 5.19002 18.97 5.35002L17.91 7.20002C17.91 7.20002 17.87 7.26002 17.86 7.30002H13.1C13.1 7.30002 13.07 7.23002 13.05 7.20002L11.99 5.35002C11.89 5.19002 11.73 5.08002 11.55 5.03002C11.37 4.98002 11.18 5.01002 11.02 5.10002C10.86 5.20002 10.74 5.35002 10.69 5.53002C10.64 5.71002 10.66 5.90002 10.76 6.06002L11.47 7.30002H6.89C6.39 7.30002 5.91 7.50002 5.55 7.86002C5.2 8.22002 5 8.70002 5 9.20002V11.57C5 12.07 5.2 12.55 5.55 12.91C5.88 13.23 6.32 13.43 6.78 13.46V22.82C6.78 23.32 6.97 23.8 7.33 24.16C7.69 24.51 8.17 24.71 8.67 24.71H21.7C22.2 24.71 22.68 24.51 23.04 24.16C23.39 23.8 23.59 23.32 23.59 22.82V13.46C24.05 13.43 24.48 13.23 24.81 12.91C25.17 12.55 25.37 12.07 25.37 11.57V9.20002C25.37 8.70002 25.17 8.22002 24.81 7.86002ZM22.17 22.82C22.17 22.94 22.12 23.06 22.03 23.15C21.94 23.24 21.82 23.29 21.7 23.29H8.67C8.54 23.29 8.42 23.24 8.34 23.15C8.25 23.06 8.2 22.94 8.2 22.82V13.46H22.17V22.82ZM23.95 11.57C23.95 11.69 23.9 11.81 23.81 11.9C23.72 11.99 23.6 12.04 23.48 12.04H6.89C6.76 12.04 6.65 11.99 6.56 11.9C6.47 11.81 6.42 11.69 6.42 11.57V9.20002C6.42 9.07002 6.47 8.95002 6.56 8.86002C6.65 8.78002 6.77 8.73002 6.89 8.73002H23.47C23.6 8.73002 23.72 8.78002 23.81 8.86002C23.9 8.95002 23.95 9.07002 23.95 9.20002V11.57Z" fill="currentColor"/>
</svg>