<svg viewBox="0 0 28 28" fill="none" xmlns="http://www.w3.org/2000/svg">
<path d="M5.8999 14.4502H21.0999V21.1002C21.0999 22.1496 20.2493 23.0002 19.1999 23.0002H7.7999C6.75056 23.0002 5.8999 22.1496 5.8999 21.1002V14.4502Z" stroke="currentColor" stroke-linecap="round" stroke-linejoin="round"/>
<path d="M4 11C4 10.4477 4.44772 10 5 10H22C22.5523 10 23 10.4477 23 11V13C23 13.5523 22.5523 14 22 14H5C4.44771 14 4 13.5523 4 13V11Z" stroke="currentColor" stroke-linecap="round" stroke-linejoin="round"/>
<path d="M13.5 6.8501V23.0001" stroke="currentColor" stroke-linecap="round" stroke-linejoin="round"/>
<path d="M13 7C13 5.34314 11.6569 4 10 4C8.34314 4 7 5.34314 7 7C7 8.65686 8.34314 10 10 10" stroke="currentColor" stroke-linecap="round" stroke-linejoin="round"/>
<path d="M17 10C18.6569 10 20 8.65686 20 7C20 5.34314 18.6569 4 17 4C15.3431 4 14 5.34314 14 7" stroke="currentColor" stroke-linecap="round" stroke-linejoin="round"/>
</svg>