<svg width="28" height="28" viewBox="0 0 28 28" fill="none" xmlns="http://www.w3.org/2000/svg">
<rect x="3.5" y="4.5" width="20" height="18" rx="2.5" stroke="currentColor"/>
<rect x="6.31543" y="8.4707" width="14.3684" height="2.23529" rx="1.11765" fill="currentColor"/>
<rect x="6.32031" y="16.2942" width="6.63158" height="2.23529" rx="1.11765" fill="currentColor"/>
<path d="M17.5179 18.8243C17.7841 19.0586 18.2159 19.0586 18.4821 18.8243L20.3003 17.2243C20.5666 16.9899 20.5666 16.61 20.3003 16.3757C20.034 16.1414 19.6023 16.1414 19.3361 16.3757L18.6818 16.9515V13.6C18.6818 13.2686 18.3766 13 18 13C17.6234 13 17.3182 13.2686 17.3182 13.6V16.9515L16.6639 16.3757C16.3977 16.1414 15.966 16.1414 15.6997 16.3757C15.4334 16.61 15.4334 16.9899 15.6997 17.2243L17.5179 18.8243Z" fill="currentColor"/>
</svg>
