<svg width="31" height="30" viewBox="0 0 31 30" fill="none" xmlns="http://www.w3.org/2000/svg">
<path d="M23.9145 6.07031H7.98384C6.26906 6.07031 4.85742 7.48195 4.85742 9.2465V21.9512C4.85742 23.666 6.26906 25.0776 7.98384 25.0776H23.9168C25.6316 25.0776 27.0432 23.666 27.0432 21.9512V9.2465C27.0409 7.48195 25.6293 6.07031 23.9145 6.07031ZM25.6293 10.4568V11.4137H19.2272C16.9581 11.4137 15.1438 13.228 15.1438 15.4971C15.1438 17.7661 16.9581 19.5804 19.2272 19.5804H25.6316V21.8992C25.6316 22.8561 24.876 23.614 23.9168 23.614H7.98384C7.02691 23.614 6.26906 22.8584 6.26906 21.8992V9.2465C6.26906 8.28957 7.02465 7.48195 7.98384 7.48195H23.9168C24.8737 7.48195 25.6316 8.23754 25.6316 9.19673V10.4568H25.6293ZM25.6293 12.8254V18.1688H19.2272C17.7658 18.1688 16.5555 16.9585 16.5555 15.4971C16.5555 14.0357 17.7658 12.8254 19.2272 12.8254H25.6293Z" fill="currentColor"/>
<path d="M18.3887 15.5766C18.3887 16.3322 18.9927 16.8865 19.7505 16.8865C20.5061 16.8865 21.1124 16.2825 21.1124 15.5766C21.1124 14.821 20.5084 14.2668 19.7505 14.2668C18.995 14.2148 18.3887 14.8188 18.3887 15.5766Z" fill="currentColor"/>
</svg>
