<svg viewBox="0 0 38 38" fill="none" xmlns="http://www.w3.org/2000/svg">
<path d="M24.0938 1.73088C22.4787 1.25523 20.7692 1 19 1C9.05887 1 1 9.05887 1 19C1 28.9411 9.05887 37 19 37C28.9411 37 37 28.9411 37 19C37 16.6371 36.5447 14.3805 35.717 12.3132" stroke="currentColor" stroke-width="2" stroke-linecap="round"/>
<path d="M11.4 26V14.76L8.62 16.02V14.06L12.08 12.24H13.66V26H11.4ZM22.4763 26.16C21.3429 26.16 20.4163 26.0733 19.6963 25.9C18.9763 25.7267 18.4229 25.48 18.0363 25.16C17.6496 24.8267 17.3829 24.4267 17.2363 23.96C17.0896 23.48 17.0163 22.9333 17.0163 22.32C17.0163 21.5467 17.1096 20.9467 17.2963 20.52C17.4963 20.08 17.7829 19.7533 18.1562 19.54C18.5296 19.3133 18.9829 19.14 19.5163 19.02V18.94C18.7029 18.7667 18.1029 18.4333 17.7163 17.94C17.3296 17.4467 17.1363 16.7 17.1363 15.7C17.1363 15.1 17.2229 14.5733 17.3963 14.12C17.5696 13.6667 17.8496 13.2933 18.2363 13C18.6363 12.6933 19.1829 12.4667 19.8763 12.32C20.5696 12.16 21.4363 12.08 22.4763 12.08C23.5163 12.08 24.3829 12.16 25.0763 12.32C25.7696 12.4667 26.3096 12.6933 26.6963 13C27.0963 13.2933 27.3829 13.6667 27.5563 14.12C27.7296 14.5733 27.8163 15.1 27.8163 15.7C27.8163 16.7 27.6229 17.4467 27.2363 17.94C26.8496 18.4333 26.2496 18.7667 25.4363 18.94V19.02C25.9829 19.14 26.4363 19.3133 26.7963 19.54C27.1696 19.7533 27.4496 20.08 27.6363 20.52C27.8363 20.9467 27.9363 21.5467 27.9363 22.32C27.9363 22.9333 27.8563 23.48 27.6963 23.96C27.5496 24.4267 27.2829 24.8267 26.8963 25.16C26.5096 25.48 25.9629 25.7267 25.2563 25.9C24.5496 26.0733 23.6229 26.16 22.4763 26.16ZM22.4763 24.24C23.2896 24.24 23.9229 24.2 24.3763 24.12C24.8429 24.0267 25.1696 23.8333 25.3563 23.54C25.5429 23.2333 25.6363 22.7733 25.6363 22.16C25.6363 21.68 25.5896 21.3 25.4963 21.02C25.4029 20.7267 25.2363 20.5067 24.9963 20.36C24.7696 20.2133 24.4496 20.1133 24.0363 20.06C23.6363 20.0067 23.1163 19.98 22.4763 19.98C21.8229 19.98 21.2963 20.0067 20.8963 20.06C20.4963 20.1133 20.1763 20.2133 19.9363 20.36C19.7096 20.5067 19.5496 20.7267 19.4563 21.02C19.3763 21.3 19.3363 21.68 19.3363 22.16C19.3363 22.7733 19.4229 23.2333 19.5963 23.54C19.7829 23.8333 20.1029 24.0267 20.5563 24.12C21.0229 24.2 21.6629 24.24 22.4763 24.24ZM22.4763 18.1C23.3163 18.1 23.9496 18.0467 24.3763 17.94C24.8163 17.8333 25.1163 17.6333 25.2763 17.34C25.4363 17.0467 25.5163 16.62 25.5163 16.06C25.5163 15.4733 25.4363 15.0333 25.2763 14.74C25.1296 14.4467 24.8363 14.2467 24.3963 14.14C23.9696 14.0333 23.3296 13.98 22.4763 13.98C21.6229 13.98 20.9763 14.0333 20.5363 14.14C20.1096 14.2467 19.8229 14.4467 19.6763 14.74C19.5296 15.0333 19.4563 15.4733 19.4563 16.06C19.4563 16.62 19.5296 17.0467 19.6763 17.34C19.8363 17.6333 20.1363 17.8333 20.5763 17.94C21.0163 18.0467 21.6496 18.1 22.4763 18.1Z" fill="currentColor"/>
<path fill-rule="evenodd" clip-rule="evenodd" d="M31.6406 2.07812C31.6406 1.52584 31.1929 1.07813 30.6406 1.07813C30.0883 1.07812 29.6406 1.52584 29.6406 2.07813V5.07812H26.6406C26.0883 5.07812 25.6406 5.52584 25.6406 6.07812C25.6406 6.63041 26.0883 7.07812 26.6406 7.07812H29.6406V10.0781C29.6406 10.6304 30.0883 11.0781 30.6406 11.0781C31.1929 11.0781 31.6406 10.6304 31.6406 10.0781V7.07812H34.6406C35.1929 7.07812 35.6406 6.63041 35.6406 6.07812C35.6406 5.52584 35.1929 5.07812 34.6406 5.07812H31.6406V2.07812Z" fill="currentColor"/>
</svg>
