<svg width="21" height="21" viewBox="0 0 21 21" fill="none" xmlns="http://www.w3.org/2000/svg">
<path d="M15.3271 5.59985C15.4646 5.57026 15.6103 5.60804 15.7051 5.69849C15.7996 5.78903 15.8276 5.91751 15.7783 6.03149C15.3267 7.0763 15.117 7.68134 15.0967 8.427C15.9571 8.72498 16.6588 9.18264 17.1836 9.78931C17.7513 10.4456 17.9754 11.1199 18.0635 11.5774C18.0837 11.5878 18.1413 11.6096 18.2646 11.6096H18.9756C19.578 11.6096 20.0681 12.0296 20.0684 12.5461V14.3743C20.0683 14.89 19.578 15.3098 18.9756 15.3098H18.2646C18.0555 15.3098 17.9977 15.3772 17.8984 15.5559C17.3762 16.4887 16.5604 17.2336 15.5381 17.7102C15.4566 17.7481 15.4272 17.7808 15.4229 17.7942C15.4224 17.7973 15.4228 17.8193 15.4229 17.8225C15.4336 17.8382 15.4436 17.8552 15.4512 17.8723L15.6758 18.384C15.7831 18.6246 15.7745 18.8883 15.6504 19.1252C15.526 19.3626 15.3012 19.5439 15.0176 19.636L13.6123 20.092C13.4831 20.134 13.3476 20.1555 13.21 20.1555C12.7431 20.1555 12.3194 19.9061 12.1523 19.5344C12.1287 19.4861 11.9691 19.1595 11.8369 18.8225C11.8217 18.7842 11.8102 18.7593 11.8018 18.7444C11.7924 18.7438 11.7798 18.7434 11.7646 18.7434C11.6763 18.7434 11.5437 18.7554 11.376 18.7708C11.0296 18.8025 10.5058 18.8508 9.73438 18.8508C8.88027 18.8508 8.34935 18.7558 7.99805 18.6926C7.88308 18.6721 7.78149 18.6535 7.71777 18.6487C7.7047 18.6693 7.68507 18.7046 7.65918 18.7629C7.5106 19.1028 7.32609 19.5146 7.31934 19.5295C7.15363 19.9033 6.72693 20.1554 6.25879 20.1555C6.12121 20.1555 5.9856 20.1342 5.85645 20.092L4.4502 19.636C4.16703 19.5437 3.9425 19.3625 3.81836 19.1252C3.6945 18.8884 3.68546 18.6249 3.79297 18.3831C3.79435 18.3799 3.79642 18.3764 3.79785 18.3733C3.80043 18.3682 4.04694 17.8605 4.18164 17.5051C4.23058 17.3755 4.20044 17.3555 4.0752 17.2727C4.06457 17.2657 4.05463 17.2587 4.04492 17.2522C3.19183 16.6675 1.75075 15.432 1.66699 13.7161C1.63463 13.0557 1.69844 12.4352 1.85645 11.8616C1.67197 11.8093 1.37188 11.7071 1.07227 11.5325C0.415703 11.15 0.0683594 10.608 0.0683594 9.96606C0.0685422 9.28697 0.495967 8.69083 1.15723 8.44653C1.35103 8.37488 1.57669 8.45126 1.66016 8.61743C1.74352 8.78357 1.65372 8.97662 1.45996 9.0481C1.07335 9.19097 0.833172 9.54237 0.833008 9.96606C0.833008 10.3813 1.05213 10.7231 1.48438 10.9807C1.70737 11.1134 1.93578 11.1929 2.0752 11.2336C2.11 11.1522 2.1465 11.0715 2.18555 10.9924C2.55913 10.2348 3.11794 9.60418 3.8457 9.11841C5.51789 8.00289 7.44414 7.46028 9.73438 7.46021C10.5551 7.46021 11.3624 7.53237 12.1377 7.67505C12.7943 6.59973 13.8407 5.91976 15.3271 5.59985ZM15.0869 11.4719C14.6242 11.4721 14.25 11.8193 14.25 12.2463C14.2501 12.6737 14.6242 13.0206 15.0869 13.0208C15.5483 13.0208 15.9217 12.6738 15.9219 12.2463C15.9219 11.8192 15.5484 11.4719 15.0869 11.4719ZM7.22656 0.155518C9.59252 0.155518 11.5107 2.07378 11.5107 4.4397C11.5107 5.10051 11.361 5.72652 11.0938 6.2854C7.49657 5.89292 5.2312 6.78749 4.13965 7.40942C3.39873 6.63941 2.94247 5.59267 2.94238 4.4397C2.94238 2.07385 4.86067 0.155625 7.22656 0.155518ZM6.02734 3.2395V5.63892H8.42578V3.2395H6.02734Z" fill="url(#paint0_linear_2209_14445)"/>
<defs>
<linearGradient id="paint0_linear_2209_14445" x1="10.0684" y1="0.155518" x2="10.0684" y2="20.1555" gradientUnits="userSpaceOnUse">
<stop stop-color="#9088CB"/>
<stop offset="1" stop-color="#686299"/>
</linearGradient>
</defs>
</svg>
