<svg viewBox="0 0 27 27" fill="none" xmlns="http://www.w3.org/2000/svg">
<g id="Home">
<g id="Subtract">
<path fill-rule="evenodd" clip-rule="evenodd" d="M3.31836 13.8339C3.31836 11.6027 3.31836 10.4871 3.82458 9.5623C4.3308 8.63749 5.25564 8.0635 7.10529 6.91556L9.05529 5.70533C11.0105 4.49186 11.9882 3.88513 13.0684 3.88513C14.1486 3.88513 15.1262 4.49186 17.0815 5.70533L19.0315 6.91555C20.8811 8.0635 21.8059 8.63749 22.3121 9.5623C22.8184 10.4871 22.8184 11.6027 22.8184 13.8339V13.8339V15.317C22.8184 19.1203 22.8184 21.022 21.676 22.2035C20.5338 23.3851 18.6953 23.3851 15.0184 23.3851H11.1184C7.4414 23.3851 5.60293 23.3851 4.46064 22.2035C3.31836 21.022 3.31836 19.1203 3.31836 15.317V13.8339ZM10.9017 17.9685C10.3034 17.9685 9.81836 18.4535 9.81836 19.0518C9.81836 19.6501 10.3034 20.1351 10.9017 20.1351H15.235C15.8333 20.1351 16.3184 19.6501 16.3184 19.0518C16.3184 18.4535 15.8333 17.9685 15.235 17.9685H10.9017Z" fill="url(#paint0_linear_343_386)"/>
<path fill-rule="evenodd" clip-rule="evenodd" d="M3.31836 13.8339C3.31836 11.6027 3.31836 10.4871 3.82458 9.5623C4.3308 8.63749 5.25564 8.0635 7.10529 6.91556L9.05529 5.70533C11.0105 4.49186 11.9882 3.88513 13.0684 3.88513C14.1486 3.88513 15.1262 4.49186 17.0815 5.70533L19.0315 6.91555C20.8811 8.0635 21.8059 8.63749 22.3121 9.5623C22.8184 10.4871 22.8184 11.6027 22.8184 13.8339V13.8339V15.317C22.8184 19.1203 22.8184 21.022 21.676 22.2035C20.5338 23.3851 18.6953 23.3851 15.0184 23.3851H11.1184C7.4414 23.3851 5.60293 23.3851 4.46064 22.2035C3.31836 21.022 3.31836 19.1203 3.31836 15.317V13.8339ZM10.9017 17.9685C10.3034 17.9685 9.81836 18.4535 9.81836 19.0518C9.81836 19.6501 10.3034 20.1351 10.9017 20.1351H15.235C15.8333 20.1351 16.3184 19.6501 16.3184 19.0518C16.3184 18.4535 15.8333 17.9685 15.235 17.9685H10.9017Z" fill="url(#paint1_linear_343_386)"/>
</g>
</g>
<defs>
<linearGradient id="paint0_linear_343_386" x1="13.0684" y1="3.88513" x2="13.0684" y2="23.3851" gradientUnits="userSpaceOnUse">
<stop stop-color="white"/>
<stop offset="1" stop-color="#E4DCF4"/>
</linearGradient>
<linearGradient id="paint1_linear_343_386" x1="13.0684" y1="3.88513" x2="13.0684" y2="23.3851" gradientUnits="userSpaceOnUse">
<stop stop-color="#9088CB"/>
<stop offset="1" stop-color="#686299"/>
</linearGradient>
</defs>
</svg>
