<svg viewBox="0 0 27 27" fill="none" xmlns="http://www.w3.org/2000/svg">
<g id="Home">
<path id="Subtract" fill-rule="evenodd" clip-rule="evenodd" d="M3.3186 13.4018C3.3186 11.1706 3.3186 10.055 3.82482 9.13017C4.33104 8.20536 5.25588 7.63137 7.10553 6.48343L9.05553 5.2732C11.0108 4.05974 11.9884 3.453 13.0686 3.453C14.1488 3.453 15.1264 4.05974 17.0817 5.2732L19.0317 6.48342C20.8814 7.63138 21.8062 8.20536 22.3124 9.13017C22.8186 10.055 22.8186 11.1706 22.8186 13.4018V13.4018V14.8849C22.8186 18.6882 22.8186 20.5899 21.6763 21.7714C20.5341 22.953 18.6955 22.953 15.0186 22.953H11.1186C7.44164 22.953 5.60317 22.953 4.46088 21.7714C3.3186 20.5899 3.3186 18.6882 3.3186 14.8849V13.4018ZM10.9019 17.5363C10.3036 17.5363 9.8186 18.0214 9.8186 18.6197C9.8186 19.218 10.3036 19.703 10.9019 19.703H15.2353C15.8336 19.703 16.3186 19.218 16.3186 18.6197C16.3186 18.0214 15.8336 17.5363 15.2353 17.5363H10.9019Z" fill="url(#paint0_linear_343_3243)"/>
</g>
<defs>
<linearGradient id="paint0_linear_343_3243" x1="13.0686" y1="3.453" x2="13.0686" y2="22.953" gradientUnits="userSpaceOnUse">
<stop stop-color="white"/>
<stop offset="1" stop-color="#E4DCF4"/>
</linearGradient>
</defs>
</svg>
