<svg viewBox="0 0 27 27" fill="none" xmlns="http://www.w3.org/2000/svg">
<g id="Promo&#195;&#167;&#195;&#163;o=on">
<g id="Group 1">
<path id="Union" fill-rule="evenodd" clip-rule="evenodd" d="M13.3537 4.16754C10.719 4.16754 8.58317 6.30338 8.58317 8.93808C8.58317 11.5728 10.719 13.7086 13.3537 13.7086H13.6671C16.4749 13.7086 18.751 11.4325 18.751 8.62469V5.90228C18.751 4.94421 17.9744 4.16754 17.0163 4.16754H13.3537ZM8.84413 15.7996C6.77771 15.7996 5.10254 17.4748 5.10254 19.5412C5.10254 21.6076 6.77771 23.2828 8.84413 23.2828H18.4903C20.5567 23.2828 22.2319 21.6076 22.2319 19.5412C22.2319 17.4748 20.5567 15.7996 18.4903 15.7996H8.84413Z" fill="url(#paint0_linear_343_435)"/>
</g>
</g>
<defs>
<linearGradient id="paint0_linear_343_435" x1="13.6672" y1="4.16754" x2="13.6672" y2="23.2828" gradientUnits="userSpaceOnUse">
<stop stop-color="#9088CB"/>
<stop offset="1" stop-color="#686299"/>
</linearGradient>
</defs>
</svg>
