<svg viewBox="0 0 23 25" fill="none" xmlns="http://www.w3.org/2000/svg">
<g id="Promo&#195;&#167;&#195;&#163;o=on">
<g id="Group 1">
<path id="Union" fill-rule="evenodd" clip-rule="evenodd" d="M12.3511 3.67847C9.86579 3.67847 7.85107 5.69319 7.85107 8.17847C7.85107 10.6637 9.86579 12.6785 12.3511 12.6785H12.5439C15.1357 12.6785 17.2368 10.5774 17.2368 7.98561V5.31483C17.2368 4.41109 16.5042 3.67847 15.6004 3.67847H12.3511ZM8.16759 14.6509C6.21835 14.6509 4.63818 16.2311 4.63818 18.1803C4.63818 20.1295 6.21835 21.7097 8.16759 21.7097H16.9205C18.8697 21.7097 20.4499 20.1295 20.4499 18.1803C20.4499 16.2311 18.8697 14.6509 16.9205 14.6509H8.16759Z" fill="url(#paint0_linear_27_784)"/>
</g>
</g>
<defs>
<linearGradient id="paint0_linear_27_784" x1="12.544" y1="3.67847" x2="12.544" y2="21.7097" gradientUnits="userSpaceOnUse">
<stop stop-color="white"/>
<stop offset="1" stop-color="#E4DCF4"/>
</linearGradient>
</defs>
</svg>
