<svg viewBox="0 0 27 27" fill="none" xmlns="http://www.w3.org/2000/svg">
<g id="Promo&#195;&#167;&#195;&#163;o=on">
<g id="Group">
<path id="Union" fill-rule="evenodd" clip-rule="evenodd" d="M9.50525 3.53003C7.47343 3.53003 5.82631 5.17715 5.82631 7.20897C5.82631 8.20692 6.22365 9.11206 6.86876 9.77482H4.37348C3.80666 9.77482 3.34717 10.2343 3.34717 10.8011V12.8538C3.34717 13.4206 3.80666 13.8801 4.37348 13.8801H21.8208C22.3876 13.8801 22.8471 13.4206 22.8471 12.8538V10.8011C22.8471 10.2343 22.3876 9.77482 21.8208 9.77482H19.326C19.9711 9.11206 20.3684 8.20692 20.3684 7.20897C20.3684 5.17715 18.7213 3.53003 16.6895 3.53003C14.9318 3.53003 13.4619 4.76271 13.0974 6.41076C12.7328 4.76271 11.263 3.53003 9.50525 3.53003ZM16.3783 9.77482C16.469 9.71967 16.5755 9.68792 16.6895 9.68792C18.0586 9.68792 19.1684 8.57806 19.1684 7.20897C19.1684 5.83989 18.0586 4.73003 16.6895 4.73003C15.3204 4.73003 14.2105 5.83989 14.2105 7.20897C14.2105 7.32312 14.1787 7.42982 14.1233 7.52066L14.1233 9.77482H16.3783ZM12.0707 9.77482V7.5195C12.0158 7.42891 11.9842 7.32263 11.9842 7.20897C11.9842 5.83989 10.8743 4.73003 9.50525 4.73003C8.13617 4.73003 7.02631 5.83989 7.02631 7.20897C7.02631 8.57806 8.13617 9.68792 9.50525 9.68792C9.61919 9.68792 9.7257 9.71967 9.81643 9.77482H12.0707ZM5.29709 14.3419H20.8971V21.6801C20.8971 22.7571 20.0241 23.6301 18.9471 23.6301H7.24708C6.17013 23.6301 5.29709 22.7571 5.29709 21.6801V14.3419ZM12.0708 16.959V21.0643C12.0708 21.6311 12.5303 22.0906 13.0971 22.0906C13.6639 22.0906 14.1234 21.6311 14.1234 21.0643V16.959C14.1234 16.3922 13.6639 15.9327 13.0971 15.9327C12.5303 15.9327 12.0708 16.3922 12.0708 16.959Z" fill="url(#paint0_linear_343_946)"/>
</g>
</g>
<defs>
<linearGradient id="paint0_linear_343_946" x1="13.0972" y1="3.53003" x2="13.0972" y2="23.6301" gradientUnits="userSpaceOnUse">
<stop stop-color="#9088CB"/>
<stop offset="1" stop-color="#686299"/>
</linearGradient>
</defs>
</svg>
