<svg viewBox="0 0 25 25" fill="none" xmlns="http://www.w3.org/2000/svg">
<g id="Promo&#195;&#167;&#195;&#163;o=on">
<g id="Group">
<path id="Union" fill-rule="evenodd" clip-rule="evenodd" d="M5.36865 5.93158C5.36865 4.08578 6.86496 2.58948 8.71075 2.58948C10.2931 2.58948 11.6186 3.68913 11.9647 5.16593C11.9808 5.23449 12.0053 5.30138 12.0182 5.37061C12.0235 5.39891 12.0262 5.42808 12.0262 5.45791C12.0262 5.42801 12.029 5.39877 12.0343 5.37041C12.0476 5.29937 12.073 5.23082 12.0896 5.16049C12.4378 3.68644 13.7619 2.58948 15.3423 2.58948C17.1881 2.58948 18.6844 4.08578 18.6844 5.93158C18.6844 7.77737 17.1881 9.27368 15.3423 9.27368C15.0662 9.27368 14.8423 9.04982 14.8423 8.77368C14.8423 8.49754 15.0662 8.27368 15.3423 8.27368C16.6359 8.27368 17.6844 7.22509 17.6844 5.93158C17.6844 4.63807 16.6359 3.58948 15.3423 3.58948C14.0488 3.58948 13.0002 4.63807 13.0002 5.93158C13.0002 6.04044 12.9736 6.14861 12.9736 6.25747L12.9736 8.77369C12.9736 9.0353 12.7615 9.24737 12.4999 9.24737C12.2383 9.24737 12.0262 9.0353 12.0262 8.77369C12.0262 9.0353 11.8141 9.24737 11.5525 9.24737C11.2909 9.24737 11.0789 9.0353 11.0789 8.77369V6.25353C11.0789 6.14599 11.0529 6.03912 11.0529 5.93158C11.0529 4.63807 10.0043 3.58948 8.71075 3.58948C7.41724 3.58948 6.36865 4.63807 6.36865 5.93158C6.36865 7.22509 7.41724 8.27368 8.71075 8.27368C8.9869 8.27368 9.21075 8.49754 9.21075 8.77368C9.21075 9.04982 8.9869 9.27368 8.71075 9.27368C6.86496 9.27368 5.36865 7.77737 5.36865 5.93158Z" fill="url(#paint0_linear_27_733)"/>
<path id="Subtract" fill-rule="evenodd" clip-rule="evenodd" d="M3.97373 8.30005C3.45052 8.30005 3.02637 8.7242 3.02637 9.24742V11.1422C3.02637 11.6654 3.45052 12.0895 3.97373 12.0895H20.079C20.6022 12.0895 21.0263 11.6654 21.0263 11.1422V9.24742C21.0263 8.7242 20.6022 8.30005 20.079 8.30005H3.97373ZM19.2263 13.5159C19.2263 12.9636 18.7786 12.5159 18.2263 12.5159H5.82629C5.27401 12.5159 4.82629 12.9636 4.82629 13.5159V19.2895C4.82629 20.2837 5.63218 21.0895 6.62629 21.0895H17.4263C18.4204 21.0895 19.2263 20.2837 19.2263 19.2895V13.5159ZM11.0789 18.7211V14.9316C11.0789 14.4084 11.5031 13.9842 12.0263 13.9842C12.5495 13.9842 12.9736 14.4084 12.9736 14.9316V18.7211C12.9736 19.2443 12.5495 19.6684 12.0263 19.6684C11.5031 19.6684 11.0789 19.2443 11.0789 18.7211Z" fill="url(#paint1_linear_27_733)"/>
</g>
</g>
<defs>
<linearGradient id="paint0_linear_27_733" x1="12.0265" y1="2.58948" x2="12.0265" y2="9.27368" gradientUnits="userSpaceOnUse">
<stop stop-color="white"/>
<stop offset="1" stop-color="#E4DCF4"/>
</linearGradient>
<linearGradient id="paint1_linear_27_733" x1="12.0264" y1="8.30005" x2="12.0264" y2="21.0895" gradientUnits="userSpaceOnUse">
<stop stop-color="white"/>
<stop offset="1" stop-color="#E4DCF4"/>
</linearGradient>
</defs>
</svg>
