<svg viewBox="0 0 27 27" fill="none" xmlns="http://www.w3.org/2000/svg">
<g id="Promo&#195;&#167;&#195;&#163;o=on">
<g id="Group">
<path id="Subtract" fill-rule="evenodd" clip-rule="evenodd" d="M21.2663 10.2407H4.84961V20.8345C4.84961 21.939 5.74504 22.8345 6.84961 22.8345H21.2663C22.3708 22.8345 23.2663 21.939 23.2663 20.8345V18.6789H19.61C18.4041 18.6789 17.4264 17.7012 17.4264 16.4953C17.4264 15.2893 18.4041 14.3117 19.61 14.3117H23.2663V12.2407C23.2663 11.1362 22.3708 10.2407 21.2663 10.2407Z" fill="url(#paint0_linear_343_419)"/>
<path id="Rectangle 7" d="M4.84961 8.9881H16.7663V7.71953C16.7663 6.61496 15.8708 5.71953 14.7663 5.71953H6.84961C5.74504 5.71953 4.84961 6.61496 4.84961 7.71953V8.9881Z" fill="url(#paint1_linear_343_419)"/>
<ellipse id="Ellipse 1" cx="19.703" cy="16.5376" rx="0.702475" ry="0.702474" fill="url(#paint2_linear_343_419)"/>
</g>
</g>
<defs>
<linearGradient id="paint0_linear_343_419" x1="14.0579" y1="10.2407" x2="14.0579" y2="22.8345" gradientUnits="userSpaceOnUse">
<stop stop-color="#9088CB"/>
<stop offset="1" stop-color="#686299"/>
</linearGradient>
<linearGradient id="paint1_linear_343_419" x1="10.8079" y1="8.9881" x2="10.8079" y2="5.71953" gradientUnits="userSpaceOnUse">
<stop stop-color="#9088CB"/>
<stop offset="1" stop-color="#686299"/>
</linearGradient>
<linearGradient id="paint2_linear_343_419" x1="19.703" y1="15.8351" x2="19.703" y2="17.2401" gradientUnits="userSpaceOnUse">
<stop stop-color="#9088CB"/>
<stop offset="1" stop-color="#686299"/>
</linearGradient>
</defs>
</svg>
