<svg viewBox="0 0 38 38" fill="none" xmlns="http://www.w3.org/2000/svg">
<path d="M18.2292 28.5492L12.9385 31.0168C11.9409 31.4821 10.7548 31.0537 10.2847 30.0584L3.09997 14.8454C2.62827 13.8466 3.05556 12.6546 4.05434 12.1829L15.3375 6.85409C16.3363 6.38239 17.5284 6.80968 18.0001 7.80846L18.5847 9.04638" stroke="currentColor"/>
<path fill-rule="evenodd" clip-rule="evenodd" d="M14.9972 15.933L11.6605 22.6064C10.6944 22.0105 10.2285 20.8087 10.6043 19.6859L11.3828 17.3597L12.1762 14.9889L14.547 15.7823L14.9972 15.933Z" fill="currentColor"/>
<rect x="0.669909" y="-0.226323" width="17.4782" height="21.8146" rx="2.5" transform="matrix(-0.896232 -0.443586 -0.443586 0.896232 36.1699 13.6106)" stroke="currentColor"/>
<path d="M24.939 19.0015L22.615 19.7866L21.8298 17.4626" stroke="currentColor" stroke-width="5" stroke-linecap="round"/>
</svg>
