<svg viewBox="0 0 38 38" fill="none" xmlns="http://www.w3.org/2000/svg">
<path d="M14.5322 10.7112C14.3964 9.08832 13.9631 8.26521 12.3572 7.00182C12.3564 7.00124 12.3568 7 12.3578 7.00001C15.8495 7.00673 17.4979 7.78904 19.9755 10.3406C19.9757 10.3408 19.976 10.3409 19.9763 10.3409C25.016 10.2021 27.4138 10.7897 30.4994 13.6813C30.4997 13.6816 30.4998 13.6821 30.4996 13.6825C29.4511 15.3822 28.5038 15.9543 26.5097 16.651C26.509 16.6512 26.5082 16.6506 26.5083 16.6498C26.824 14.7026 25.2386 14.3891 21.0726 14.4242C21.0714 14.4242 21.0712 14.4259 21.0723 14.4262C24.7224 15.3336 25.7555 15.9651 25.0566 17.3935C25.0565 17.3938 25.0563 17.394 25.056 17.3941C22.189 18.2735 20.6114 18.7663 19.2528 19.6194C19.252 19.62 19.2524 19.6213 19.2534 19.6213C19.9996 19.6375 20.4064 19.5985 21.0634 19.2506C21.064 19.2503 21.0647 19.2506 21.0649 19.2512C21.5323 20.9068 21.3201 21.4783 21.0648 22.5896C21.0647 22.5902 21.0639 22.5906 21.0633 22.5902L17.7991 20.7352C17.7987 20.735 17.7982 20.7351 17.7978 20.7354C14.8961 23.7042 16.7091 26.6729 21.424 28.5289C21.4249 28.5293 21.4258 28.5282 21.4252 28.5274L19.9762 26.6748C19.976 26.6745 19.9759 26.674 19.9762 26.6736C21.5434 24.0162 22.7358 23.1234 25.4159 22.5916C25.4169 22.5914 25.4175 22.5926 25.4168 22.5933C21.9154 25.9469 21.9999 27.9103 24.3291 31.4977C24.3296 31.4985 24.3289 31.4995 24.328 31.4992C22.121 30.8437 20.8632 30.4954 19.976 28.5308C19.9759 28.5305 19.9756 28.5303 19.9753 28.5302L17.0732 28.1592C17.0728 28.1591 17.0724 28.1593 17.0722 28.1596C16.83 28.5075 16.7802 28.7768 16.71 29.2705C16.7099 29.2714 16.7088 29.2717 16.7082 29.271C15.6774 28.0779 15.2352 27.3617 14.8956 25.9336C14.8954 25.9328 14.8944 25.9326 14.8939 25.9331L14.1699 26.6737C14.1696 26.674 14.1691 26.6741 14.1687 26.6739C9.81475 24.4468 9.25063 21.3439 11.9914 16.6524C11.9917 16.6519 11.9915 16.6513 11.991 16.651L11.2666 16.2806C11.2663 16.2804 11.2659 16.2804 11.2656 16.2806C10.1981 16.9739 9.65423 17.6935 8.72769 19.2468C8.72717 19.2477 8.72581 19.2475 8.72581 19.2465C8.72768 18.5025 9.32434 16.8501 10.1771 15.1673C10.1773 15.1669 10.1772 15.1665 10.1769 15.1662L8.00166 12.9411C8.00104 12.9405 8.00152 12.9394 8.00241 12.9394C11.5708 12.9365 13.4538 13.3455 16.7093 14.4241L16.71 14.4241C18.7782 13.5966 20.3598 13.3012 23.5955 12.9404C23.5967 12.9403 23.5967 12.9385 23.5955 12.9384C20.7634 12.6441 19.1747 12.7345 16.347 13.3106L16.3465 13.3105L13.0833 12.1979C13.0824 12.1976 13.0824 12.1963 13.0833 12.196L17.0674 10.7141C17.0684 10.7137 17.0681 10.7121 17.067 10.7121H14.5332C14.5327 10.7121 14.5322 10.7117 14.5322 10.7112Z" stroke="currentColor"/>
</svg>
