<svg viewBox="0 0 39 38" fill="none" xmlns="http://www.w3.org/2000/svg">
<path d="M28.5 16C23.5 9.5 19 9.5 15 5C20.5 9.5 24 9 29 15C30.5422 16.9828 32.0146 20.3392 31.5 23C30.8467 26.378 28.3391 28.9406 27.5 29.5C34 22.5 29.1817 16.8862 28.5 16Z" fill="currentColor"/>
<path d="M21.5 16C15.5 10.5 14 10.5 11.5 6C12.5 7.5 14.5 10 17.5 12C20.5 14.5 24.5 16.75 25.5 20C27.5 26.5 22.5 30.5 19.5 32C26 27.5 27 20.5 21.5 16Z" fill="currentColor"/>
<path d="M17.5 17.5C9.5 11.5 12.5 12.5 9.5 9C9.50025 10 9.74987 12 9.99987 12.5C10.9999 14.5 7.49987 19 7.99987 19C8.39048 19 10.4999 19.5 10.4999 22.5C10.4999 23.5 12.3393 24.5365 12.4999 25.5C12.8999 27.9 12 29 13.5 29C13.8333 29 15.0999 28.7 17.4999 27.5C20.4999 26 21 27 21.5 28C22.5 26.5 20.5 19.5 17.5 17.5Z" stroke="currentColor"/>
</svg>
