<svg width="32" height="32" viewBox="0 0 32 32" fill="none" xmlns="http://www.w3.org/2000/svg">
<path d="M3.11922 18.332C3.23525 17.7923 3.76693 17.4487 4.30672 17.5644C4.84648 17.6802 5.19076 18.2121 5.07528 18.7519C4.91554 19.4977 5.03718 20.2498 5.20028 20.8779L5.28719 21.1777C5.50165 21.8336 5.7804 22.1782 6.02645 22.3593C6.29854 22.5595 6.6511 22.6488 7.12508 22.5956C8.14031 22.4816 9.42679 21.7392 10.5147 20.7685C11.7428 19.6726 12.7972 19.0928 13.6876 18.7978C14.587 18.4999 15.2625 18.5136 15.6251 18.5136C15.9566 18.5136 16.509 18.4805 17.3048 18.7382C18.0694 18.986 19.0183 19.4833 20.3145 20.4335C21.5498 21.3391 23.0805 22.2579 24.377 22.4921C25.003 22.6052 25.4735 22.5402 25.8223 22.3408C26.16 22.1476 26.5405 21.7388 26.8116 20.8398L26.8731 20.6191C27.009 20.087 27.0841 19.4415 26.9932 18.6572C26.9298 18.1087 27.3236 17.6123 27.8722 17.5488C28.4205 17.4855 28.9168 17.8784 28.9806 18.4267C29.1024 19.4785 29.0002 20.3686 28.8116 21.1093L28.7257 21.4179C28.3518 22.6573 27.7163 23.5618 26.8155 24.0771C25.9256 24.5859 24.9331 24.6245 24.0216 24.4599C22.243 24.1386 20.3966 22.9739 19.1319 22.0468C17.9282 21.1644 17.174 20.7988 16.6886 20.6415C16.235 20.4946 15.9879 20.5136 15.6251 20.5136C15.2932 20.5136 14.8919 20.5057 14.3165 20.6962C13.7313 20.8901 12.9101 21.3118 11.8468 22.2607C10.6432 23.3347 8.97396 24.4004 7.34774 24.5829C6.50114 24.6778 5.61089 24.5373 4.8409 23.9706C4.17499 23.4806 3.69487 22.7424 3.38582 21.7978L3.26375 21.3798C3.07209 20.6417 2.8625 19.53 3.11922 18.332ZM20.0147 13.2509C20.175 13.1371 20.3993 13.148 20.5489 13.287C20.7196 13.4464 20.7293 13.7146 20.5704 13.8857L19.2872 15.2617L20.5704 16.6415C20.7293 16.8127 20.7196 17.0808 20.5489 17.2402C20.3777 17.3992 20.1096 17.3896 19.9503 17.2187L18.7081 15.8827L17.7227 16.9413C17.5633 17.1119 17.2951 17.1209 17.1241 16.9618C16.9537 16.8023 16.9445 16.5341 17.1036 16.3632L18.129 15.2617L17.1729 14.2324C17.014 14.0611 17.0235 13.793 17.1944 13.6337C17.3656 13.4752 17.6339 13.4845 17.7931 13.6552L18.7081 14.6396L19.9503 13.3076L20.0147 13.2509ZM10.9317 17.2763H7.32039V13.665H10.9317V17.2763ZM23.8038 13.3974C24.7842 13.4971 25.5488 14.3253 25.5489 15.332L25.5391 15.5312C25.4394 16.5116 24.6113 17.2763 23.6046 17.2763L23.4063 17.2665C22.4913 17.1735 21.763 16.4462 21.67 15.5312L21.6602 15.332C21.6604 14.2584 22.5311 13.388 23.6046 13.3876L23.8038 13.3974ZM16.0128 17.2216H11.9151L13.8595 13.1796L16.0128 17.2216ZM8.32039 16.2763H9.93172V14.665H8.32039V16.2763ZM23.6046 14.3876C23.0833 14.388 22.6604 14.8107 22.6602 15.332C22.6603 15.8533 23.0833 16.2759 23.6046 16.2763C24.1262 16.2763 24.5489 15.8536 24.5489 15.332C24.5488 14.8104 24.1261 14.3876 23.6046 14.3876ZM13.5059 16.2216H14.3468L13.9044 15.3915L13.5059 16.2216ZM7.86922 7.62786C9.09784 6.99956 10.2904 6.91177 11.3741 7.06634C12.428 7.21671 13.3973 7.60099 14.169 7.90521C15.0175 8.23969 15.5394 8.43344 15.9327 8.44524C16.3054 8.45637 16.8193 8.29068 17.6593 7.97845C18.4193 7.69592 19.3835 7.32372 20.4112 7.17376C21.4704 7.01931 22.6395 7.09211 23.8263 7.70989C24.9251 8.28199 25.9553 9.27697 26.9181 10.8046L27.1095 11.1171L27.1573 11.2079C27.3714 11.6672 27.2074 12.223 26.7628 12.4882C26.318 12.7533 25.7505 12.6335 25.4483 12.2265L25.3917 12.1415L25.2247 11.87C24.3932 10.5509 23.6021 9.84756 22.9024 9.48333C22.1708 9.10257 21.4466 9.04346 20.7003 9.15228C19.9227 9.26569 19.1675 9.55196 18.3565 9.85345C17.6255 10.1252 16.7156 10.4694 15.8731 10.4443C15.0513 10.4197 14.158 10.0503 13.4356 9.76556C12.6364 9.45048 11.878 9.15903 11.0919 9.04681C10.3353 8.93891 9.57333 9.00212 8.77938 9.40814C7.96976 9.82233 7.04335 10.6356 6.04793 12.1728L5.98739 12.2558C5.67031 12.6511 5.0987 12.7501 4.66414 12.4687C4.20101 12.1685 4.06845 11.5493 4.36825 11.0859L4.57918 10.7685C5.63642 9.21653 6.73226 8.2094 7.86922 7.62786Z" fill="currentColor"/>
</svg>
