<svg xmlns="http://www.w3.org/2000/svg" width="32" height="32" fill="currentColor" viewBox="0 0 32 32">
  <path fill="currentColor" d="m14.15 12.378 3.8-3.615.025-.025H9.7L6 12.378v5.657l3.7 3.64h4.45v-3.64h-2.9L9.7 16.51v-2.63l1.55-1.5h2.9Z"/>
  <path fill="currentColor" d="M21.75 12.378H15.5l3.724-3.59h4.026L26 11.493v4.673l-2.75 2.705H19.8v-3.738h1.95l.55-.541v-1.673l-.55-.54Z"/>
  <path fill="currentColor" d="M19.224 13.116H15.5v8.535h3.724v-8.535Zm6.701-6.665c0 .801-.66 1.451-1.475 1.451-.815 0-1.475-.65-1.475-1.45 0-.802.66-1.452 1.475-1.452.815 0 1.475.65 1.475 1.451Zm-2.676 18.075c.175.112.354.185.535.22a.97.97 0 0 0 .187.019c.063 0 .128-.006.195-.017a.628.628 0 0 0 .18-.059.3.3 0 0 0 .176-.282c0-.131-.098-.223-.295-.275a2.788 2.788 0 0 0-.184-.04l-.202-.035c-.258-.044-.438-.108-.54-.192a.382.382 0 0 1-.141-.312c0-.179.086-.323.26-.434a.997.997 0 0 1 .548-.149 1.448 1.448 0 0 1 .725.181l-.096.227a1.262 1.262 0 0 0-.484-.157 1.197 1.197 0 0 0-.17-.012.744.744 0 0 0-.333.07c-.112.056-.169.133-.169.232 0 .104.072.18.214.228.064.023.137.04.218.055l.252.043c.213.039.36.083.442.132.082.05.143.105.181.166.04.06.06.141.06.242 0 .1-.024.19-.072.27a.606.606 0 0 1-.193.198c-.157.104-.356.155-.599.155-.226 0-.44-.048-.639-.145a1.171 1.171 0 0 1-.18-.108l.124-.22Zm-2.285-1.528h1.496v.234h-1.234v.532h1.1v.234h-1.1v.739h1.263v.234h-1.525v-1.973ZM18.061 23h.078l.885.954.884-.954h.083l.17 1.97h-.256l-.13-1.483-.748.817h-.029l-.726-.804-.113 1.47h-.254l.156-1.97Zm-1.748-.002h.148l.868 1.973h-.286l-.19-.432H15.85l-.206.432h-.269l.938-1.973Zm.439 1.307-.182-.414a4.467 4.467 0 0 1-.066-.161l-.057-.158a1.652 1.652 0 0 1-.064-.209h-.017c-.007.037-.024.09-.05.159l-.073.181a3.736 3.736 0 0 1-.07.159l-.212.443h.79Zm-3.781.219a1 1 0 0 1-.14-.521.974.974 0 0 1 .323-.742 1.03 1.03 0 0 1 .223-.157c.172-.09.36-.134.563-.134.298 0 .545.082.74.245l-.147.198a.92.92 0 0 0-.619-.211.805.805 0 0 0-.57.217.711.711 0 0 0-.236.545c0 .236.078.43.234.58a.82.82 0 0 0 .593.223.806.806 0 0 0 .592-.25v-.213h-.695v-.235h.957v.902h-.262v-.191a.913.913 0 0 1-.432.2 1.207 1.207 0 0 1-.75-.108 1.066 1.066 0 0 1-.213-.15.907.907 0 0 1-.16-.198Zm-.972.465a.174.174 0 0 1-.128-.047.168.168 0 0 1-.048-.126c0-.052.016-.093.048-.124a.174.174 0 0 1 .128-.047c.052 0 .095.016.127.047.032.03.048.072.048.124a.168.168 0 0 1-.048.126.174.174 0 0 1-.127.047Zm-2.511-1.991h.795c.268 0 .482.06.643.178.173.129.26.313.26.554a.73.73 0 0 1-.275.599c-.173.14-.396.21-.668.21H9.75v.432h-.262v-1.973Zm.79 1.307c.193 0 .345-.047.456-.142a.516.516 0 0 0 .175-.417.448.448 0 0 0-.196-.393c-.117-.08-.274-.12-.471-.12H9.75v1.072h.528Zm-1.571-.897a.884.884 0 0 0-.605-.206.805.805 0 0 0-.569.217.712.712 0 0 0-.236.545c0 .224.08.415.243.57a.817.817 0 0 0 .588.233 1.103 1.103 0 0 0 .627-.204l.102.192a1.072 1.072 0 0 1-.537.227c-.07.011-.143.017-.218.017-.148 0-.288-.024-.419-.073a1.105 1.105 0 0 1-.345-.205.985.985 0 0 1-.234-.314.864.864 0 0 1-.085-.368.977.977 0 0 1 .323-.779c.067-.061.141-.113.224-.156a1.19 1.19 0 0 1 .562-.134c.274 0 .511.077.71.232l-.131.206Z"/>
</svg>
