<svg viewBox="0 0 33 33" fill="none" xmlns="http://www.w3.org/2000/svg">
<path d="M24.0153 9.71973C22.0314 9.71973 20.425 11.1816 20.425 12.9807C20.425 14.7799 22.0314 16.2417 24.0153 16.2417C25.3005 16.2417 26.4249 15.6313 27.0595 14.7156C26.7061 16.1052 25.4531 17.0771 24.0153 17.0771C22.2081 17.0771 21.0435 16.4506 19.8628 15.7598L19.6379 15.6313C20.5696 13.5028 19.6058 11.0209 17.4693 10.0812C15.3327 9.14142 12.8589 10.1133 11.9191 12.2498C11.4292 13.3663 11.4452 14.6353 11.9673 15.7357L11.9031 15.7759C10.8428 16.4747 9.89507 17.0851 8.41718 17.0771C6.68226 17.0771 5.27666 15.6795 5.26863 13.9446C5.26863 12.2097 6.6662 10.804 8.40111 10.796C9.48543 10.796 10.4975 11.3502 11.0758 12.2739C11.2123 11.8964 11.389 11.535 11.6139 11.1976C10.12 9.43057 7.46137 9.22174 5.69432 10.7318C3.92728 12.2418 3.72648 14.9004 5.2365 16.6674C6.0397 17.5991 7.20434 18.1373 8.43324 18.1373C10.2244 18.1373 11.4533 17.3501 12.5055 16.6594L12.5537 16.6273C14.0396 18.4104 16.6982 18.6513 18.4813 17.1654C18.7062 16.9807 18.907 16.7718 19.0917 16.5389L19.3247 16.6755C20.5134 17.3742 21.9511 18.1373 24.0153 18.1373C26.3446 18.1373 28.2241 16.2498 28.2241 13.9285C28.2241 11.6073 26.3366 9.71973 24.0153 9.71973ZM24.0153 15.1735C22.6258 15.1735 21.4933 14.1936 21.4933 12.9807C21.4933 11.7679 22.6258 10.788 24.0153 10.788C25.4049 10.788 26.5374 11.7679 26.5374 12.9807C26.5374 14.1936 25.4049 15.1735 24.0153 15.1735ZM15.7825 17.069C14.0476 17.069 12.634 15.6634 12.626 13.9285C12.6179 12.1936 14.0316 10.78 15.7665 10.7719C17.5014 10.7719 18.915 12.1775 18.9231 13.9124C18.9231 14.314 18.8508 14.7076 18.6982 15.0851C17.8628 14.6434 16.9472 14.2819 15.8066 14.2819C15.0356 14.2819 14.2725 14.4506 13.5737 14.7879C13.7103 15.1333 13.9191 15.4385 14.1922 15.6875C14.7062 15.4706 15.2524 15.3582 15.8066 15.3582C16.6902 15.3582 17.405 15.6233 18.1439 16.0008C17.5496 16.6835 16.6902 17.069 15.7825 17.069Z" fill="currentColor"/>
<path d="M17.6457 22.6482H18.1175V19.7934H17.6457V22.6482ZM10.945 20.1591C10.7916 20.0293 10.6147 19.9231 10.4141 19.8405C10.2136 19.7698 10.013 19.7344 9.80069 19.7344C9.65913 19.7344 9.52936 19.7462 9.3878 19.7816C9.25803 19.817 9.14006 19.8641 9.02209 19.9231C8.90412 19.9821 8.80975 20.0647 8.71537 20.1473C8.621 20.2298 8.53842 20.336 8.47944 20.4422C8.40865 20.5484 8.36147 20.6663 8.32607 20.7961C8.29068 20.9259 8.26709 21.0556 8.26709 21.1854C8.26709 21.3388 8.29068 21.4921 8.32607 21.6337C8.36147 21.7634 8.42045 21.8932 8.49123 21.9994C8.56201 22.1056 8.64459 22.1999 8.75076 22.2825C8.85694 22.3651 8.96311 22.4359 9.08108 22.4831C9.21084 22.542 9.34061 22.5774 9.47038 22.601C9.61194 22.6246 9.7535 22.6364 9.90686 22.6364H10.9332V21.0674H10.4613V22.4005H10.0956C9.90686 22.4005 9.71811 22.3769 9.54116 22.3179C9.3878 22.2707 9.24624 22.1881 9.12827 22.0702C9.0103 21.964 8.92772 21.8342 8.86873 21.6809C8.80975 21.5157 8.77436 21.3506 8.77436 21.1736C8.77436 21.0084 8.79795 20.8433 8.85694 20.6899C8.90412 20.5484 8.97491 20.4186 9.08108 20.3124C9.17545 20.2063 9.29342 20.1237 9.43499 20.0647C9.57655 20.0057 9.74171 19.9703 9.89507 19.9703C9.97765 19.9703 10.0602 19.9821 10.1428 19.9939C10.2254 20.0057 10.308 20.0293 10.3787 20.0647C10.4495 20.1001 10.5321 20.1355 10.5911 20.1709C10.6619 20.218 10.7326 20.2652 10.8034 20.3242L10.945 20.1591ZM24.1812 20.1591C24.0278 20.0293 23.8508 19.9231 23.6503 19.8405C23.4497 19.7698 23.2492 19.7344 23.0369 19.7344C22.8953 19.7344 22.7655 19.7462 22.624 19.7816C22.4942 19.817 22.3762 19.8641 22.2583 19.9231C22.1403 19.9821 22.0459 20.0647 21.9515 20.1473C21.8572 20.2298 21.7746 20.336 21.7156 20.4422C21.6448 20.5484 21.5976 20.6663 21.5622 20.7961C21.5268 20.9259 21.5032 21.0556 21.5032 21.1854C21.5032 21.3388 21.5268 21.4921 21.5622 21.6337C21.5976 21.7634 21.6566 21.8932 21.7274 21.9994C21.7982 22.1056 21.8808 22.1999 21.9869 22.2825C22.0931 22.3651 22.1993 22.4359 22.3172 22.4831C22.447 22.542 22.5768 22.5774 22.7065 22.601C22.8481 22.6246 22.9897 22.6364 23.143 22.6364H24.1694V21.0674H23.6975V22.4005H23.32C23.1312 22.4005 22.9425 22.3769 22.7655 22.3179C22.6122 22.2707 22.4706 22.1881 22.3526 22.0702C22.2347 21.964 22.1521 21.8342 22.0931 21.6809C22.0341 21.5157 21.9987 21.3506 21.9987 21.1736C21.9987 21.0084 22.0223 20.8433 22.0813 20.6899C22.1285 20.5484 22.1993 20.4186 22.3054 20.3124C22.3998 20.2063 22.5178 20.1237 22.6593 20.0647C22.8009 20.0057 22.9661 19.9703 23.1194 19.9703C23.202 19.9703 23.2846 19.9821 23.3672 19.9939C23.4497 20.0057 23.5323 20.0293 23.6031 20.0647C23.6739 20.1001 23.7565 20.1355 23.8154 20.1709C23.8862 20.218 23.957 20.2652 24.0278 20.3242L24.1812 20.1591ZM12.514 19.7934L12.3488 20.1827L11.3107 22.6482H11.6056L11.8062 22.1527H13.1864L13.3988 22.6482H13.8942L12.6909 19.7934H12.514ZM11.9123 21.9168L12.4904 20.5248L13.0802 21.9168H11.9123ZM20.7482 21.9876L19.1793 19.7816H18.8843V22.6364H19.1321V20.5248L20.6421 22.6364H21.0078V19.7816H20.76L20.7482 21.9876ZM15.593 20.8905L14.6492 19.7816H14.2717V22.6364H14.5195V20.2888L15.475 21.3977L16.4306 20.2888V22.6364H16.9024V19.7816H16.5485L15.593 20.8905Z" fill="currentColor"/>
</svg>
