<svg viewBox="0 0 33 33" fill="none" xmlns="http://www.w3.org/2000/svg">
<path fill-rule="evenodd" clip-rule="evenodd" d="M9.39038 7.19493C13.4653 5.01757 18.3709 6.02318 21.0729 9.58216C22.166 11.025 22.9005 12.8875 23.0579 15.1349C21.9474 15.2223 20.933 15.2485 20.0149 15.2223C12.7559 14.9957 11.1962 11.3765 9.74253 8.0034C9.62543 7.73168 9.50903 7.46155 9.39038 7.19493ZM11.3142 20.9763C12.6958 18.8514 14.9081 17.1375 19.6301 16.9014C20.6445 16.8489 21.79 16.8664 23.0579 16.9626C22.4983 24.7451 15.1092 27.9631 9.39038 24.9113C9.51711 24.6294 9.64098 24.3439 9.76552 24.0569C10.2167 23.0168 10.6768 21.9563 11.3142 20.9763Z" fill="currentColor"/>
</svg>
