<svg width="33" height="33" viewBox="0 0 33 33" fill="none" xmlns="http://www.w3.org/2000/svg">
<path d="M29.4077 13.6434L29.2909 14.3713H24.2452L24.8001 11.0031L19.0972 16.0592H22.0838L21.9669 16.7715L21.244 21.123L24.9097 17.4529H28.7725L28.6556 18.1652L28.6045 18.4672C28.4293 19.5125 27.9254 20.4803 27.2171 21.2236C27.0273 21.4249 26.8301 21.6108 26.611 21.7733C26.5088 21.8585 26.3993 21.9359 26.2898 22.0056C26.1437 22.1063 25.9977 22.1915 25.8443 22.2689C25.2163 22.6018 24.5227 22.7954 23.8144 22.7954H19.9735C19.7763 22.7954 19.5865 22.7722 19.4039 22.7489C18.9804 22.6793 18.6007 22.5321 18.2648 22.3308C18.1991 22.2921 18.1333 22.2534 18.0749 22.2069C18.0457 22.1837 18.0092 22.1605 17.98 22.1373C17.8924 22.0753 17.8121 22.0056 17.7317 21.9359C17.6879 21.8895 17.6368 21.8508 17.6003 21.8043L17.5711 21.7656C17.2863 21.4636 17.0599 21.1075 16.892 20.7048C16.892 20.7048 16.892 20.6971 16.892 20.6894C16.8847 20.6661 16.8701 20.6352 16.8628 20.6119C16.8628 20.5964 16.8555 20.5887 16.8482 20.5732C16.8409 20.55 16.8336 20.5345 16.8263 20.5113C16.819 20.4803 16.8044 20.4493 16.7971 20.4261V20.4106C16.7971 20.4106 16.7752 20.3564 16.7679 20.3254C16.6875 20.0467 16.6437 19.768 16.6291 19.4815C16.6291 19.3808 16.6218 19.2802 16.6218 19.1873C16.6218 18.9472 16.6437 18.6995 16.6875 18.4517L17.8997 11.127V11.1038C17.8997 11.1038 17.8997 11.0496 17.8997 11.0264C17.8997 11.0264 17.8851 10.9799 17.8778 10.9567C17.8705 10.9335 17.8559 10.9257 17.8486 10.9102L17.1476 10.0043L16.5999 9.29199H26.078C26.8301 9.29199 27.5019 9.50879 28.0422 9.88819C28.0422 9.88819 28.1007 9.93464 28.1372 9.95013C28.1445 9.95013 28.1591 9.96561 28.1664 9.97336C28.1883 9.98884 28.2102 10.0043 28.2248 10.0198C28.2321 10.0276 28.2467 10.043 28.254 10.043C28.2759 10.0585 28.2905 10.074 28.3124 10.0895C28.3197 10.0972 28.3343 10.105 28.3416 10.1127C28.3708 10.136 28.3927 10.1592 28.422 10.1824C28.4366 10.1902 28.4439 10.2056 28.4585 10.2134C28.4731 10.2289 28.4877 10.2444 28.5023 10.2521C28.5169 10.2676 28.5315 10.2831 28.5461 10.2986C28.5534 10.3063 28.568 10.3218 28.5753 10.3295C28.5899 10.345 28.6045 10.3605 28.6191 10.376C28.6191 10.376 28.6337 10.3915 28.641 10.3992C28.6775 10.4457 28.714 10.4844 28.7432 10.5231C28.7432 10.5231 28.7798 10.5696 28.7944 10.5928C28.7944 10.5928 28.8017 10.6005 28.8017 10.6083C28.8236 10.6315 28.8309 10.6547 28.8528 10.6779C28.9258 10.7863 28.9915 10.8947 29.0572 11.0109C29.4442 11.731 29.5976 12.6369 29.4369 13.6047L29.4077 13.6434ZM15.2271 9.38491L15.1687 9.30748H4.69754C4.69754 9.30748 4.65373 9.30748 4.63912 9.30748C4.61722 9.30748 4.59531 9.32296 4.5734 9.33845C4.52229 9.36942 4.48578 9.40813 4.46387 9.46233C4.42006 9.55525 4.42736 9.66365 4.50038 9.75656L4.63912 9.94239L4.69754 10.0121L4.85818 10.2211L4.88739 10.2598L5.38393 10.9025C5.41314 10.9412 5.42775 10.9877 5.44235 11.0341C5.44235 11.0341 5.44235 11.0728 5.44235 11.0961V11.1193V11.1348L4.63182 16.0282L3.5 22.8109H8.72828L9.41467 18.653H15.2271L15.6725 15.9895L15.7894 15.2772H9.97693L10.4078 12.6833H16.2129L16.4904 11.0186L15.7164 10.0198L15.2271 9.39265V9.38491Z" fill="currentColor"/>
</svg>
