<svg width="100" height="100" viewBox="0 0 100 100" fill="currentColor" xmlns="http://www.w3.org/2000/svg">
<path d="M71.1353 27.817L69.3264 36.6739H58.1715L56.2621 44.7165H66.7136L64.8042 52.8608H54.6542L50.7349 71.0838H30.435C29.3804 71.0838 28.5256 70.2178 28.5256 69.1495C28.5256 68.0812 29.3804 67.2152 30.435 67.2152H35.6525C35.9185 67.2152 36.1823 67.13 36.3773 66.9468C37.8251 65.5868 37.1162 64.2223 36.3641 63.5003C36.1784 63.3221 35.9248 63.2449 35.669 63.2449H22.7471C21.6648 63.2449 20.7875 62.3542 20.7875 61.2578C20.7875 60.1614 21.6648 59.2745 22.7471 59.2745H41.3833C41.7801 59.2745 42.1787 59.1651 42.479 58.9022C43.9215 57.6394 43.2468 56.4236 42.4434 55.7344C42.1654 55.4959 41.7994 55.4059 41.4352 55.4059H4.95976C3.87744 55.4059 3.00003 54.5533 3 53.4568C2.99997 52.3605 3.87722 51.4356 4.95941 51.4356H38.937C39.4168 51.4356 39.9067 51.2801 40.1846 50.8839C40.8763 49.8976 40.619 48.8252 40.1894 48.0628C39.9171 47.5796 39.3697 47.3634 38.8205 47.3634H36.6656C35.6666 47.3634 34.8567 46.4275 34.8567 45.4154C34.8567 44.4034 35.6666 43.6984 36.6656 43.6984H44.1358C44.5706 43.6984 45.0077 43.5677 45.3126 43.2536C46.8324 41.6875 45.6625 40.1444 44.8057 39.5245H20.7875C18.8781 39.0154 18.8781 36.1649 20.7875 35.6559H38.8747C39.5346 35.6559 40.2219 35.5222 40.6916 35.0527C41.7178 34.0269 41.3278 32.8636 40.7479 32.0923C40.4804 31.7364 40.0397 31.5837 39.5982 31.5837H36.7159C35.6891 31.5837 34.8567 30.7004 34.8567 29.6603C34.8567 28.6201 35.6891 27.817 36.7159 27.817H71.1353Z" fill="currentColor"/>
<path d="M30.1335 47.3634H26.4762C25.4772 47.3634 24.6673 46.543 24.6673 45.5309C24.6673 44.5189 25.4772 43.6984 26.4762 43.6984H30.1335C31.1325 43.6984 31.9424 44.5189 31.9424 45.5309C31.9424 46.543 31.1325 47.3634 30.1335 47.3634Z" fill="currentColor"/>
<path d="M64.6032 42.375H71.6378C70.9946 45.307 72.9107 48.2796 73.9492 49.3994H71.5348C70.4817 49.3994 69.6279 50.2643 69.6279 51.3312C69.6279 52.2884 70.3939 53.0644 71.3388 53.0644H78.9739L82.1897 56.2203C82.5917 56.709 82.3572 59.4781 82.1897 60.8015C81.7074 64.0593 79.4429 64.7355 78.5719 64.6676C76.6625 64.5658 78.1365 58.7654 78.9739 55.6095H59.8775C58.9353 55.6095 58.1715 56.3832 58.1715 57.3377C58.1715 58.4073 59.0275 59.2745 60.0834 59.2745H68.02C67.1356 63.3466 67.5175 66.1293 67.819 67.0116C69.3465 70.9209 74.4181 71.9661 76.763 72H79.1749C85.0438 71.9186 88.9899 68.6405 90.2293 67.0116C92.4804 64.0796 93.3781 58.1207 93.5456 55.5077V53.5734C93.4652 50.7229 91.1673 48.1778 90.0283 47.2615C86.079 44.2472 84.1532 42.662 83.3261 41.9165C82.947 41.5747 82.7253 41.0922 82.6564 40.5828C82.4034 38.7111 82.7558 37.1834 83.2123 36.1359C83.6001 35.2462 84.5586 34.8414 85.5187 34.8414C86.1386 34.8414 86.6209 35.4044 86.5206 36.0242L85.707 41.0515H96.058C97.0227 38.1195 97.0629 34.1966 96.9624 32.6017C96.7213 28.611 91.3012 27.2061 88.6214 27.0025H85.5061C76.0194 26.8396 72.5757 34.6039 72.0398 38.5064H64.6032C62.8301 39.1696 62.8307 41.7103 64.6032 42.375Z" fill="currentColor"/>
</svg>
