<svg xmlns="http://www.w3.org/2000/svg" width="180" height="80" fill="currentColor" viewBox="0 0 180 80">
  <g clip-path="url(#a)">
    <path d="M138.621 21.629c6.627 0 12 5.373 12 12V52c0 6.627-5.373 12-12 12H12C5.373 64 0 58.627 0 52V33.629c0-6.627 5.373-12 12-12h126.621Zm1.394 31.015c-.468.078-.823.264-1.069.564-.263.318-.389.744-.389 1.277 0 .63.222 1.129.672 1.495.414.348.936.515 1.572.515s1.157-.173 1.559-.521c.432-.372.649-.9.649-1.578a3.36 3.36 0 0 0-.145-.997 2.274 2.274 0 0 0-.389-.75h-1.752v1.83h.425v-1.343h1.092c.096.15.18.33.24.54.06.216.096.438.096.672 0 .557-.167.977-.497 1.26-.312.263-.738.396-1.278.396-.552 0-.991-.132-1.315-.408-.33-.276-.491-.643-.491-1.11 0-.379.09-.685.276-.919.174-.222.42-.365.744-.431v-.492Zm-97.022-22.89c-6.852 0-12.407 5.978-12.407 13.35 0 7.373 5.555 13.351 12.407 13.351 6.853 0 12.407-5.978 12.407-13.35 0-7.373-5.554-13.35-12.407-13.35Zm16.447 1.162v25.539h5.77v-9.287h6.303a8.126 8.126 0 0 0 0-16.252H59.44Zm34.915 9.867c-6.853 0-12.407 5.555-12.408 12.407v3.265h6.348v-3.808a6.06 6.06 0 0 1 12.119 0v3.808h6.348V53.19c-.001-6.852-5.555-12.407-12.407-12.407Zm15.87-9.867v25.539h5.77v-8.42l3.311-3.388 7.365 11.517h6.926l-10.339-15.562 9.184-9.396h-6.924l-9.523 9.772V30.916h-5.77ZM8.656 30.335v25.539h5.77v-9.286h6.303a8.127 8.127 0 0 0 0-16.252h-6.302v-.001h-5.77Zm129.985 19.309v.569l4.284 1.686v-.528l-1.2-.456v-1.968l1.2-.456v-.534l-4.284 1.687Zm2.67 1.116-2.142-.822v-.025l2.142-.81v1.657ZM42.993 35.687c3.808 0 6.895 3.32 6.895 7.418 0 4.096-3.087 7.417-6.895 7.417-3.807 0-6.894-3.32-6.894-7.417 0-4.097 3.087-7.418 6.894-7.418ZM157.546 25.11c2.55 0 4.616 2.08 4.616 4.644a4.642 4.642 0 0 1-2.885 4.304v14.27h-6.925v-4.063h3.462V34.059a4.643 4.643 0 0 1-2.885-4.304c0-2.565 2.067-4.644 4.617-4.644Zm-18.905 17.625v.612l3.654 1.59v.018l-3.654 1.596v.612h4.284v-.492h-3.408v-.018l3.408-1.482v-.444l-3.408-1.482v-.019h3.408v-.49h-4.284ZM70.385 35.56a3.483 3.483 0 0 1 0 6.964H65.21V35.56h5.174ZM19.6 34.98a3.483 3.483 0 1 1 0 6.964h-5.174V34.98H19.6Zm119.04 6.011v.486h4.284v-.486h-4.284Zm0-4.712v.492h3.486v.018l-3.486 2.424v.517h4.284v-.493h-3.523v-.018l3.523-2.436v-.504h-4.284Zm-55.558-5.363c1.891 4.436 6.29 7.546 11.417 7.546s9.527-3.11 11.418-7.546H98.75a6.04 6.04 0 0 1-4.25 1.741 6.04 6.04 0 0 1-4.249-1.741h-7.168Zm56.932.469c-.468.078-.823.263-1.069.563-.264.318-.389.745-.389 1.279 0 .63.222 1.128.672 1.494.414.348.936.515 1.572.515s1.157-.173 1.559-.521c.432-.372.649-.9.649-1.578a3.36 3.36 0 0 0-.145-.996 2.274 2.274 0 0 0-.389-.75h-1.752v1.83h.425v-1.344h1.092c.096.15.18.33.24.54.06.216.096.438.096.672 0 .558-.167.978-.497 1.26-.312.264-.738.395-1.278.395-.552 0-.991-.131-1.315-.407-.33-.276-.491-.643-.491-1.11 0-.378.09-.684.276-.918.173-.222.42-.366.744-.432v-.492Zm17.531-3.575a1.94 1.94 0 0 0-1.933 1.945c0 1.073.866 1.943 1.933 1.943a1.94 1.94 0 0 0 1.933-1.943 1.94 1.94 0 0 0-1.933-1.944Zm18.207-11.415c1.414-1.15 2.792.474 1.845 1.53l-3.163 4.08h3.886c1.443-.086 2.164.944 1.317 1.97-.935 1.13-3.306 3.688-5.731 6.191-2.222 2.294-3.962.197-2.644-1.333l2.117-3.002h-4.481c-1.979 0-2.408-1.01-1.318-2.295l8.172-7.14Z"/>
  </g>
  <defs>
    <clipPath id="a">
      <path d="M0 0h180v80H0z"/>
    </clipPath>
  </defs>
</svg>
