<svg xmlns="http://www.w3.org/2000/svg" width="32" height="32" fill="currentColor" viewBox="0 0 32 32">
  <path d="m19.94 7 2.875 1.834.871-.004c.86 0 1.392.004 2.238.272.49.155.803.366 1.046.663.255.31.295.637.3.733h.002v.029c-.002.151-.011.884-.072 1.368-.127 1.001-1.846 7.49-2.223 8.28-.075.156-.14.303-.202.442-.251.565-.448 1.007-.988 1.463-.308.26-.509.378-.875.55a4.06 4.06 0 0 1-1.004.338 8.239 8.239 0 0 1-1.032.184c-.424.051-1.09.07-1.09.07h-.077L16.925 25l-2.771-1.777H8.342c-.86 0-1.391 0-2.237-.269-.49-.155-.803-.366-1.047-.663-.303-.368-.33-.761-.33-.761h10.125l1.848-5.615 1.665 5.615h4.02l.01-.029 1.262-4.725 1.713-6.25h-3.377l-1.536 5.587-1.977-5.587H9.633l-.761 2.85h3.511l.761-2.85 1.508-.307-3.18 11.722-1.266-.412 1.808-6.77H8.502l-.131.493-1.74 6.828-1.903-.55s0-1.21.1-1.637a48.16 48.16 0 0 1 .759-2.896c.138-.477.296-1.023.518-1.843.29-1.074.492-1.759.763-2.679l.183-.622c.339-1.152.517-1.336 1.19-1.905.308-.26.51-.378.875-.55.37-.173.997-.323 1.004-.324 0 0 .444-.092.732-.127.284-.036.73-.06.73-.06l5.453-.026L19.94 7Z"/>
</svg>
