<svg viewBox="0 0 33 33" fill="none" xmlns="http://www.w3.org/2000/svg">
<path fill-rule="evenodd" clip-rule="evenodd" d="M12.8706 12.8372L12.8733 12.8448C13.0334 12.3481 13.1623 11.8428 13.2912 11.3375C13.3784 10.9955 13.4656 10.6535 13.5626 10.314C13.5702 10.2864 13.5743 10.2628 13.5751 10.2427L14.5959 11.7222L14.7361 11.8929C14.8799 12.0682 14.818 12.3307 14.6668 12.784L14.4767 13.4831C14.4214 13.6858 14.3661 13.8885 14.3111 14.0912C14.1525 14.6754 13.9938 15.2596 13.8348 15.8437C13.736 16.2065 13.6373 16.5694 13.5388 16.9323L13.4251 17.3516C13.1544 18.3429 12.9023 19.3362 12.6731 20.3379C14.1768 20.3398 15.6805 20.3413 17.1842 20.3422C17.9153 20.3427 18.6464 20.3431 19.3776 20.3441C20.0196 20.345 20.6617 20.3457 21.3038 20.3459L21.4009 20.346C21.7078 20.3461 22.0146 20.3462 22.3215 20.3466C22.6459 20.3472 22.9702 20.3477 23.2946 20.3477L23.6537 20.3477L23.9932 20.3486L24.3046 20.3483C24.562 20.3485 24.7985 20.3411 25.0523 20.2981C26.0229 20.0684 26.8696 19.5433 27.4468 18.726L27.5736 18.5292C27.6917 18.355 27.7819 18.1941 27.8609 17.9989C28.06 17.1463 28.0414 16.2348 27.5817 15.4763L27.4875 15.3424C28.0587 14.6613 28.5241 13.9943 28.6284 13.0919C28.6576 12.2132 28.3336 11.593 27.7674 10.9511C27.0274 10.2295 26.0863 10.123 25.0927 10.1335C24.9723 10.1348 24.8519 10.1355 24.7315 10.1356C24.4015 10.1351 24.0715 10.1358 23.7415 10.1381C23.3917 10.1406 23.0419 10.1417 22.692 10.1421C22.0307 10.1429 21.3694 10.1451 20.7081 10.1486C19.9499 10.1525 19.1916 10.1549 18.4333 10.1567C17.5483 10.1587 16.6606 10.1539 15.77 10.149C15.0171 10.1449 14.262 10.1408 13.5047 10.1408L13.5067 10.1437C13.4794 10.1356 13.4446 10.1328 13.4031 10.1328C12.9647 10.1388 12.5263 10.1412 12.0878 10.1436L11.6494 10.1461V10.1562L11.6483 10.1562V10.1461H9.49117L10.2681 11.1277L10.2688 11.1252C10.3202 11.1947 10.3713 11.2653 10.422 11.3354C10.5409 11.4999 10.6601 11.6647 10.7884 11.8217C10.9053 11.9647 10.9266 12.0933 10.8804 12.2772C10.8222 12.5075 10.7581 12.7367 10.694 12.9659C10.5734 13.3968 10.4528 13.8282 10.3712 14.2691L10.3715 14.2754L10.3696 14.2712C10.1023 15.1645 9.87223 16.0682 9.64246 16.9708C9.58721 17.1878 9.53199 17.4047 9.47626 17.6215L9.4768 17.6225C9.41948 17.8365 9.3626 18.0505 9.30574 18.2646C9.16753 18.7847 9.02935 19.3048 8.88477 19.8233C8.59778 20.8612 7.8325 21.4458 6.844 21.3926C6.58786 21.3746 6.33575 21.3191 6.09572 21.2279C5.96126 21.179 5.89058 21.2135 5.80927 21.3198C5.44895 21.8013 5.08384 22.2807 4.71183 22.751C4.59013 22.9036 4.59703 22.9647 4.78251 23.0449C5.96658 23.5578 7.15862 23.5184 8.34907 23.0933C8.90071 22.8966 9.40452 22.607 9.78078 22.1366L9.89697 22.0368L9.89719 22.0383C9.96391 22.0034 10.0143 21.9437 10.0375 21.872L10.0341 21.8721L10.0364 21.8704C10.2114 21.6539 10.3573 21.4176 10.5032 21.1813C10.5326 21.1337 10.562 21.0861 10.5917 21.0387L10.5934 21.0392C10.9447 20.405 11.1069 19.7117 11.2691 19.0186C11.3234 18.7862 11.378 18.553 11.4395 18.3228C11.769 17.1941 12.0618 16.0536 12.336 14.9089L12.3741 14.7773C12.5589 14.1383 12.7438 13.4987 12.8701 12.8443L12.8706 12.8372ZM22.4057 12.0697L22.478 12.2971C22.6846 12.9762 22.8103 13.5974 22.8364 14.3091C23.1917 14.3176 23.547 14.3239 23.9025 14.328C24.0231 14.3297 24.1437 14.332 24.2643 14.335C25.0779 14.3548 25.8907 14.335 26.3193 13.7707C26.4938 13.4635 26.5586 13.1983 26.54 12.8448C26.467 12.4459 26.2285 12.2512 25.937 12.1558C25.5335 12.0519 25.1578 12.0559 24.7645 12.06L24.6347 12.0613L24.4403 12.0616C24.2376 12.0621 24.0349 12.0632 23.8322 12.0643L23.4172 12.0655C23.0801 12.0664 22.7429 12.0679 22.4057 12.0697ZM16.9795 12.0697C16.7656 12.8497 16.5522 13.6298 16.3394 14.4101C16.2406 14.7724 16.1416 15.1347 16.0422 15.4969C15.9463 15.8464 15.8509 16.196 15.7557 16.5457C15.7193 16.6791 15.6828 16.8125 15.6461 16.9458C15.5947 17.1325 15.5439 17.3193 15.4933 17.5062L15.4052 17.8285L15.3771 17.9324C15.3291 18.1094 15.3223 18.1345 15.2709 18.4268C16.7707 18.4843 18.2574 18.2919 19.4719 17.3398C20.2188 16.6268 20.8029 15.5728 20.8759 14.5338C20.8914 13.7294 20.8019 13.014 20.2794 12.6026C19.472 12.0695 18.5763 12.0646 17.6393 12.068L17.4465 12.0684C17.2908 12.0687 17.1352 12.0691 16.9795 12.0697ZM22.2573 16.4781L22.4057 16.2039C22.7021 16.2004 22.9984 16.1974 23.2948 16.1955L23.66 16.1931C23.8381 16.1909 24.0162 16.1888 24.1943 16.1878L24.3655 16.1871C24.8083 16.1833 25.1732 16.2288 25.5925 16.3762C25.86 16.507 25.9747 16.828 25.9747 17.1083C25.9339 17.435 25.8849 17.586 25.6787 17.8404C25.0994 18.3799 24.5635 18.4728 23.8695 18.4726L23.6519 18.4685C23.4175 18.4674 23.1832 18.466 22.9489 18.4628C22.7865 18.4605 22.6241 18.4588 22.4617 18.4575L21.0276 18.4433C21.0276 18.3727 21.0569 18.3339 21.089 18.2915C21.1037 18.2721 21.119 18.252 21.1323 18.2276L22.2573 16.4781Z" fill="currentColor"/>
</svg>
