<svg viewBox="0 0 33 32" fill="none" xmlns="http://www.w3.org/2000/svg">
<path fill-rule="evenodd" clip-rule="evenodd" d="M16.6988 11.261C15.0233 11.261 13.3854 11.7519 11.9923 12.6715C10.5992 13.5912 9.51334 14.8983 8.87215 16.4276C8.23096 17.957 8.0632 19.6398 8.39008 21.2633C8.71695 22.8868 9.52379 24.3781 10.7086 25.5486C11.8933 26.7191 13.4028 27.5162 15.0461 27.8392C16.6894 28.1621 18.3928 27.9964 19.9407 27.3629C21.4887 26.7294 22.8118 25.6567 23.7427 24.2803C24.6735 22.904 25.1704 21.2858 25.1704 19.6305C25.1704 17.4108 24.2778 15.282 22.6891 13.7124C21.1004 12.1428 18.9456 11.261 16.6988 11.261ZM16.4434 5.4182C14.4322 6.92009 14.7817 9.22335 14.7817 9.22335C14.7817 9.22335 13.5177 5.98166 11.8761 4C11.6546 6.55105 12.4637 9.93113 12.4637 9.93113C12.4637 9.93113 11.4358 7.83547 8.91703 7.71816C11.0062 8.90439 11.8167 11.0416 12.0021 11.6149C13.2472 10.8557 14.6709 10.43 16.1332 10.3799C15.9684 9.84612 15.3827 7.5969 16.4434 5.4182ZM17.8087 13.3509C15.1792 13.5123 16.3599 16.8957 19.2669 16.7171C22.1105 16.5425 20.6104 13.1789 17.8087 13.3509ZM10.9532 22.2025V20.4509H11.7717C12.2849 20.4509 12.6773 20.3285 12.9491 20.0838C13.2208 19.8391 13.3566 19.5034 13.3566 19.0768C13.3557 18.6467 13.2223 18.308 12.9564 18.0606C12.6905 17.8133 12.2947 17.6896 11.769 17.6896H10.2161V22.2025H10.9532ZM12.3887 18.4916C12.5333 18.6261 12.6055 18.8211 12.6055 19.0768C12.6055 19.5966 12.3007 19.8565 11.691 19.8565H10.9532V18.2906H11.693C12.0123 18.2902 12.2442 18.3572 12.3887 18.4916ZM16.2009 21.6338H14.622V17.6896H13.8843V22.2025H16.2009V21.6338ZM17.6504 21.2246H19.5782L19.9277 22.2025H20.7175L19.0412 17.7601H18.1941L16.5111 22.2025H17.3009L17.6504 21.2246ZM18.6143 18.5536L19.3714 20.6624H17.8572L18.6143 18.5536ZM22.1583 20.5596L23.6785 17.6896H22.8401L21.7921 19.78L20.7435 17.6896H19.889L21.4159 20.5596V22.2025H22.1583V20.5596Z" fill="currentColor"/>
</svg>
