<svg viewBox="0 0 33 33" fill="none" xmlns="http://www.w3.org/2000/svg">
<path fill-rule="evenodd" clip-rule="evenodd" d="M4.20776 17.375V16.8794H5.51586V17.4562C5.51586 17.9842 5.71985 18.2483 6.12753 18.2483H6.13271C6.53666 18.2483 6.73892 17.985 6.73892 17.4588C6.73892 17.1581 6.65187 16.8763 6.47718 16.613C6.30279 16.3497 6.09421 16.1091 5.85143 15.891L5.1958 15.2144C4.92488 14.9777 4.69819 14.6844 4.51575 14.3349C4.33303 13.985 4.24167 13.5977 4.24167 13.1729C4.24167 12.5192 4.41405 12.0179 4.75881 11.6683C5.10329 11.3187 5.5716 11.144 6.16316 11.144C6.75472 11.144 7.20895 11.3187 7.52613 11.668C7.84332 12.0173 8.00191 12.5186 8.00191 13.1721V13.4313H6.79552V13.0935C6.79552 12.5638 6.58234 12.2988 6.15569 12.2988C5.72904 12.2988 5.51586 12.5641 5.51586 13.094C5.51586 13.3158 5.56241 13.5274 5.65521 13.7286C5.748 13.9298 5.86839 14.1111 6.01635 14.2728C6.16431 14.4343 6.3275 14.5941 6.50563 14.7519C6.68376 14.91 6.85987 15.0755 7.03341 15.2484C7.20694 15.4213 7.36754 15.6063 7.51493 15.8038C7.66203 16.001 7.78183 16.2343 7.87435 16.503C7.96686 16.7719 8.01311 17.0641 8.01311 17.3799C8.01311 18.0319 7.85079 18.5321 7.52613 18.8806C7.20148 19.229 6.74323 19.4034 6.15138 19.4034C5.55953 19.4034 5.08749 19.2287 4.73554 18.8794C4.38359 18.5301 4.20776 18.0285 4.20776 17.375Z" fill="currentColor"/>
<path fill-rule="evenodd" clip-rule="evenodd" d="M10.012 15.1272H10.6179C10.8253 15.1272 10.9811 15.0689 11.0851 14.9526C11.1888 14.8362 11.2408 14.639 11.2408 14.3609V13.1498C11.2408 12.8717 11.1888 12.6756 11.0851 12.561C10.9811 12.4463 10.8253 12.3892 10.6179 12.3892H10.012V15.1272ZM8.73779 19.313V11.2344H10.615C11.8815 11.2344 12.515 11.9018 12.515 13.2364V14.2857C12.515 15.6166 11.8821 16.2823 10.6165 16.2823H10.012V19.313H8.73779Z" fill="currentColor"/>
<path fill-rule="evenodd" clip-rule="evenodd" d="M14.3836 14.8735H14.8818C15.1386 14.8735 15.3302 14.8077 15.4567 14.6762C15.5831 14.5448 15.6463 14.3252 15.6463 14.0171V13.2228C15.65 12.6671 15.4348 12.389 15.0007 12.389H14.3836V14.8735ZM13.1094 19.3128V11.2339H15.032C15.6876 11.2339 16.1666 11.3862 16.468 11.6907C16.7696 11.9951 16.9205 12.463 16.9205 13.0944V13.7313C16.9205 14.5619 16.6424 15.1087 16.0861 15.3717C16.6498 15.6087 16.9317 16.1818 16.9317 17.0913V18.3344V18.385C16.9317 18.7975 16.9771 19.1067 17.0676 19.3128H15.7759C15.7009 19.0842 15.6615 18.7543 15.6578 18.323V17.0576C15.6578 16.6903 15.5925 16.4267 15.4624 16.2675C15.332 16.108 15.1196 16.0285 14.8252 16.0285H14.3836V19.3128H13.1094Z" fill="currentColor"/>
<path fill-rule="evenodd" clip-rule="evenodd" d="M17.77 19.3133H19.0442V11.2344H17.77V19.3133Z" fill="currentColor"/>
<path fill-rule="evenodd" clip-rule="evenodd" d="M21.2469 18.1582H21.9775C22.2001 18.1582 22.3662 18.0991 22.4757 17.9807C22.5851 17.8624 22.64 17.6569 22.64 17.3639V16.6596C22.64 16.2914 22.5768 16.0362 22.4501 15.8935C22.3237 15.7506 22.1134 15.6795 21.8189 15.6795H21.2469V18.1582ZM21.2469 14.5244H21.7473C22.005 14.5244 22.1975 14.4586 22.3245 14.3272C22.4518 14.1957 22.5153 13.9779 22.5153 13.6737V13.223C22.519 12.6673 22.303 12.3892 21.8669 12.3892H21.2469V14.5244ZM19.9727 19.3133V11.2344H21.8982C22.555 11.2344 23.0345 11.3864 23.3364 11.6906C23.6384 11.9947 23.7895 12.4623 23.7895 13.0935V13.3807C23.7895 14.2108 23.514 14.7536 22.9626 15.0089C23.597 15.2567 23.9139 15.8335 23.9139 16.7385V17.3976C23.9139 18.021 23.7499 18.4964 23.4215 18.8231C23.0928 19.1498 22.6116 19.3133 21.9775 19.3133H19.9727Z" fill="currentColor"/>
<path fill-rule="evenodd" clip-rule="evenodd" d="M24.6785 19.3133V11.2344H28.1554V12.3894H25.9527V14.6373H27.7023V15.7921H25.9527V18.1582H28.1554V19.3133H24.6785Z" fill="currentColor"/>
<path fill-rule="evenodd" clip-rule="evenodd" d="M4.17334 20.9581H28.1733V19.8364H4.17334V20.9581Z" fill="currentColor"/>
</svg>
