<svg viewBox="0 0 33 32" fill="none" xmlns="http://www.w3.org/2000/svg">
<path fill-rule="evenodd" clip-rule="evenodd" d="M4.17334 11.345H9.3001V12.811H4.17334V11.345ZM16.455 11.345H18.2578V17.8856H16.455V11.345ZM18.4438 11.3281L19.0973 11.362C19.4578 11.3789 19.9029 11.4353 20.0888 11.486C20.2747 11.5367 20.5677 11.6439 20.7367 11.7228C20.917 11.813 21.1987 12.0273 21.4184 12.2415C21.6325 12.4614 21.8466 12.7434 21.9367 12.9238C22.0156 13.093 22.1226 13.3974 22.179 13.6004C22.2466 13.8485 22.2747 14.1812 22.2747 14.6153C22.2747 15.0382 22.2409 15.3878 22.179 15.6302C22.1283 15.8332 22.0043 16.1603 21.9086 16.3632C21.8071 16.5719 21.5987 16.8594 21.4297 17.0286C21.2494 17.2034 20.9677 17.4007 20.7255 17.5191C20.5001 17.6262 20.1395 17.7559 19.9198 17.801C19.7001 17.8461 19.2776 17.8856 18.4269 17.8856V16.4196H18.8663C19.1029 16.4196 19.3959 16.3914 19.5142 16.3632C19.6269 16.3294 19.8297 16.211 19.9649 16.087C20.0945 15.9685 20.2635 15.7374 20.3424 15.5682C20.4607 15.3089 20.4776 15.1792 20.4832 14.6717C20.4832 14.2263 20.455 14.0007 20.3762 13.7696C20.3086 13.5835 20.1733 13.3636 20.0381 13.2283C19.8748 13.0591 19.717 12.9633 19.4973 12.9012C19.3283 12.8505 19.0184 12.811 18.4269 12.811L18.4438 11.3281ZM5.80714 12.9802H7.60996V17.8856H5.80714V12.9802ZM12.117 13.093L12.2804 13.6455C12.3705 13.9444 12.4776 14.2996 12.517 14.4293C12.5621 14.5589 12.5846 14.683 12.5677 14.6943C12.5508 14.7112 12.4381 14.6999 12.3142 14.6717C12.1733 14.6379 12.0043 14.6435 11.8635 14.6773C11.7395 14.7112 11.5818 14.7788 11.5198 14.8296C11.4522 14.8803 11.3452 15.0157 11.2776 15.1228C11.21 15.2356 11.1593 15.416 11.1593 15.5344C11.1593 15.6472 11.1931 15.8276 11.2325 15.9291C11.2719 16.0249 11.4015 16.1884 11.5255 16.2787C11.7114 16.4253 11.7902 16.4478 12.0945 16.4478C12.3649 16.4478 12.4832 16.4196 12.6071 16.3294C12.6916 16.2617 12.8156 16.1264 12.8776 16.0193C12.979 15.8445 12.9902 15.7092 13.0184 13.2057H14.5959V17.8856H13.0184V17.6037L12.6917 17.7841C12.4043 17.9476 12.3086 17.9702 11.8353 17.9871C11.3959 18.004 11.2438 17.9871 10.9902 17.8912C10.8212 17.8292 10.5733 17.6995 10.4381 17.6037C10.3086 17.5135 10.1057 17.3161 9.98742 17.1695C9.86911 17.0173 9.717 16.7466 9.64376 16.5606C9.57052 16.3689 9.50292 16.0362 9.48602 15.7994C9.46348 15.5513 9.48601 15.2356 9.52545 15.0382C9.56489 14.8521 9.6832 14.5364 9.77897 14.3334C9.88601 14.1304 10.0776 13.8598 10.224 13.7301C10.3649 13.5948 10.6071 13.4256 10.7649 13.3467C10.917 13.2677 11.1424 13.1832 11.255 13.155C11.3733 13.1268 11.6156 13.1042 12.117 13.093ZM25.6607 13.1211L25.9029 13.9105C26.0381 14.3447 26.1395 14.7055 26.1283 14.7168C26.1226 14.7281 26.01 14.7055 25.8748 14.6717C25.717 14.6322 25.5649 14.6322 25.4128 14.6717C25.2888 14.7055 25.1142 14.7901 25.0297 14.8578C24.9452 14.9311 24.8325 15.1059 24.7762 15.2412C24.7029 15.4103 24.6804 15.5513 24.7086 15.6866C24.7255 15.7938 24.7931 15.9629 24.8438 16.0531C24.9001 16.149 25.0578 16.2787 25.1931 16.3463C25.3283 16.4196 25.5424 16.476 25.6663 16.476C25.7959 16.4704 25.9818 16.4196 26.1057 16.3463C26.2353 16.273 26.3593 16.1321 26.4269 15.9967C26.5283 15.7938 26.5395 15.6415 26.5395 13.2057H28.1733V17.8856H26.5395V17.6037L26.3818 17.7165C26.2973 17.7841 26.1001 17.8743 25.948 17.9251C25.7452 17.9871 25.5255 18.0097 25.1593 17.9871C24.7424 17.9702 24.5959 17.9364 24.3424 17.8067C24.1733 17.7221 23.948 17.5811 23.8522 17.5022C23.7508 17.4176 23.5762 17.2259 23.4691 17.068C23.3564 16.9158 23.2156 16.6226 23.148 16.4196C23.0522 16.1151 23.0353 15.9516 23.0522 15.4611C23.0747 14.9198 23.0917 14.8352 23.2776 14.4462C23.3902 14.215 23.5818 13.9274 23.7001 13.8034C23.8184 13.685 24.01 13.5271 24.117 13.4538C24.224 13.3805 24.4663 13.2677 24.6522 13.2057C24.8663 13.1381 25.1142 13.1042 25.6607 13.1211ZM6.86066 18.9062C6.99587 18.9005 7.20433 18.94 7.32827 18.9851C7.45221 19.0302 7.55362 19.1035 7.55362 19.143C7.54799 19.1768 7.49165 19.267 7.42404 19.3347C7.30573 19.4531 7.28883 19.4587 7.13109 19.3742C7.02404 19.3178 6.9001 19.2952 6.79306 19.3178C6.69728 19.3403 6.56207 19.4249 6.49447 19.5095C6.42123 19.5941 6.36489 19.7237 6.36489 19.8027C6.36489 19.8816 6.41559 20.0057 6.47193 20.0846C6.52827 20.1635 6.65785 20.2425 6.75362 20.2707C6.85503 20.2932 6.97334 20.2989 7.01841 20.2819C7.06348 20.265 7.10292 20.203 7.10292 20.141C7.10292 20.0508 7.06348 20.0282 6.9339 20.0282C6.77616 20.0282 6.76489 20.0113 6.76489 19.6335L7.58179 19.6617V20.0846C7.58179 20.4962 7.57616 20.5075 7.41278 20.5921C7.31137 20.6372 7.08602 20.6766 6.87756 20.671C6.62404 20.671 6.43813 20.6372 6.28602 20.5639C6.16771 20.5018 6.02123 20.3778 5.96489 20.2819C5.90292 20.1748 5.86348 20 5.86348 19.8196C5.86348 19.6561 5.89728 19.4531 5.93672 19.3685C5.98179 19.2783 6.08883 19.1599 6.17897 19.1035C6.26911 19.0415 6.40433 18.9738 6.4832 18.9513C6.56207 18.9287 6.73109 18.9062 6.86066 18.9062ZM27.3677 18.9062C27.5029 18.9005 27.7114 18.94 27.8353 18.9851C27.9593 19.0302 28.0607 19.1035 28.0607 19.143C28.055 19.1768 27.9987 19.267 27.9311 19.3347C27.8128 19.4531 27.7959 19.4587 27.6381 19.3742C27.5367 19.3178 27.4015 19.2952 27.3001 19.3178C27.2043 19.3347 27.086 19.3911 27.0353 19.4475C26.9846 19.5038 26.9226 19.611 26.9057 19.6899C26.8832 19.7688 26.8945 19.8985 26.9283 19.9887C26.9677 20.079 27.0691 20.1748 27.1874 20.2256C27.2945 20.2707 27.4353 20.2989 27.4973 20.2819C27.5593 20.265 27.61 20.2086 27.61 20.141C27.61 20.0508 27.5705 20.0282 27.4409 20.0282C27.2832 20.0282 27.2719 20.0113 27.2719 19.6335L28.0888 19.6617V20.0846C28.0888 20.4962 28.0832 20.5075 27.9198 20.5921C27.8184 20.6372 27.5931 20.6766 27.3846 20.671C27.1311 20.671 26.9452 20.6372 26.7931 20.5639C26.6747 20.5018 26.5283 20.3778 26.4719 20.2819C26.4043 20.1748 26.3705 20 26.3705 19.8027C26.3705 19.6053 26.4043 19.4362 26.4663 19.3403C26.5226 19.2557 26.6297 19.143 26.7086 19.0922C26.7874 19.0358 26.9114 18.9738 26.9902 18.9513C27.0691 18.9287 27.2381 18.9062 27.3677 18.9062ZM11.1874 18.9513L11.5086 19.7294C11.6888 20.1579 11.8297 20.5413 11.8353 20.5808C11.8353 20.6259 11.7452 20.6484 11.5649 20.6484C11.3114 20.6541 11.2945 20.6428 11.2381 20.468C11.1874 20.2932 11.1649 20.2819 10.8888 20.2707C10.5959 20.2537 10.5959 20.2537 10.5395 20.4511C10.4832 20.6428 10.4719 20.6484 10.2015 20.6484C10.0438 20.6484 9.91982 20.6428 9.91982 20.6372C9.91419 20.6259 10.0494 20.2932 10.2184 19.8872C10.3818 19.4869 10.5339 19.1091 10.5564 19.0584C10.5846 18.9795 10.6578 18.9569 11.1874 18.9513ZM10.8325 19.6335C10.7931 19.7407 10.7705 19.8365 10.7762 19.8478C10.7874 19.8591 10.8438 19.8591 10.9114 19.8478C11.0184 19.8309 11.024 19.814 10.9621 19.6335L10.8945 19.4362L10.8325 19.6335ZM14.2578 18.9569H14.8212L15.2438 19.8647L15.6663 18.9569H16.2297V20.6484H15.7226L15.717 19.8872L15.5649 20.2086C15.4297 20.4962 15.3959 20.53 15.2438 20.5357C15.0973 20.5357 15.0635 20.5018 14.7762 19.8872L14.7649 20.6484H14.2578V18.9569ZM18.8776 18.9569H19.4409V20.6484H18.8776V18.9569ZM22.0888 18.9569H22.6522L23.2776 19.8872L23.2719 18.9569H23.779V20.6484H23.2438L22.624 19.735L22.5959 20.6484H22.0888V18.9569Z" fill="currentColor"/>
</svg>
