<?xml version="1.0" standalone="no"?>
<!DOCTYPE svg PUBLIC "-//W3C//DTD SVG 20010904//EN"
 "http://www.w3.org/TR/2001/REC-SVG-20010904/DTD/svg10.dtd">
<svg version="1.0" xmlns="http://www.w3.org/2000/svg"
 width="133.000000pt" height="133.000000pt" viewBox="0 0 133.000000 133.000000"
 preserveAspectRatio="xMidYMid meet">

<g transform="translate(0.000000,133.000000) scale(0.100000,-0.100000)"
fill="#000000" stroke="none">
<path d="M888 903 c6 -2 12 -9 12 -14 0 -5 -6 -9 -12 -9 -18 0 -98 -72 -98
-88 0 -6 -4 -12 -9 -12 -16 0 -34 -100 -28 -152 10 -85 72 -163 153 -194 55
-21 146 -15 200 12 l39 21 1 121 2 122 -73 0 c-69 0 -75 -2 -104 -31 -17 -17
-31 -39 -31 -50 0 -16 7 -19 55 -19 l55 0 0 -45 c0 -49 -1 -49 -68 -47 -116 4
-174 153 -93 236 36 37 73 51 181 66 58 8 79 16 92 33 28 35 22 43 -32 41 -27
-1 -50 2 -50 7 0 5 -46 9 -102 8 -57 0 -97 -3 -90 -6z"/>
</g>
</svg>
